<svg xmlns="http://www.w3.org/2000/svg" width="144" height="129" fill="none" viewBox="0 0 144 129">
  <path fill="#009F00" d="M100 1h-8v1h-3v1h-2v1h-1v1h-1v2h-1v2h-1v3h-1v4h-1v33h-8v2h-2v1h-1v1h-1v2h-1v2h-1v3h-1v5h-6v1h-3v1h-2v1h-1v1h-1v2h-1v2h-1v3h-1v3.5h-.5v1h-1v17h-3v-5h-1v-3h-1v-2h-1v-2h-1v-1h-1v-1h-2v-1h-3v-1h-8v1h-3v1h-2v1h-1v1h-1v2h-1v2h-1v3h-1v4h-1v17h-5v1h-3v1h-2v1h-1v1h-1v2h-1v2h-1v3h-1v3H50v.5h93v-16h-1v-4h-1v-3h-1v-2h-1v-2h-1v-1h-1v-1h-2v-1h-3v-1h-5V32h-1v-4h-1v-3h-1v-2h-1v-2h-1v-1h-1v-1h-2v-1h-3v-1h-6v-5h-1V9h-1V7h-1V5h-1V4h-1V3h-2V2h-2.5v-.5h-.5V1Z"/>
  <path fill="#000" d="M76 54h2v2h-2zm6 0h2v2h-2zM60 70h2v2h-2zm6 0h2v2h-2zm-22 31h2v2h-2zm6 0h2v2h-2zM27 86h2v2h-2zm6 0h2v2h-2zm-22 32h2v2h-2zm6 0h2v2h-2zM92 6h2v2h-2zm6 0h2v2h-2zm10 16h2v2h-2zm6 0h2v2h-2zm10 80h2v2h-2zm6 0h2v2h-2z"/>
  <path stroke="#000" d="M49.5 79.5V76m1 0v-3m1 0v-2m1 0v-2m1 0v-1.5m1 .5v-1m.5-.5h2m0-1h3m0-1h5.5m2.5 0h-2.5m0 0V60m1 0v-3m1 0v-2m1 0v-2m1 0v-1m1 0v-1m.5-.5h2m0-1h3m0-1h4.5m3.5 0h-3.5m0 0V16m1 0v-4m1 0V9m1 0V7m1 0V5m1 0V4m1 0V3m.5-.5h2m0-1h3m0-1h8m0 1h3m0 1h2m0 1h1m0 1h1m.5.5v2m1 0v2m1 0v3m1 0v4.5H108h8m0 1h3m0 1h2m.5.5v1m1 0v1m1 0v2m1 0v2m1 0v3m1 0v4m1 0v64.5H124h8m0 1h3m0 1h2m.5.5v1m1 0v1m1 0v2m1 0v2m1 0v3m1 0v4m1 0v16H30m94-30.5h-3m0 1h-2m0 1h-1m0 1h-1m-.5.5v2m-1 0v2m-1 0v3m-1 0v4M68 65.5h3m0 1h2m.5.5v1m1 0v1m1 0v2m1 0v2m1 0v3m1 0v4M84 49.5h3m0 1h2m0 1h1m0 1h1m.5.5v2m1 0v2m1 0v3m1 0v4M108 17.5h-3m0 1h-2m-.5.5v1m-1 0v1m-1 0v2m-1 0v2m-1 0v3m-1 0v4M2 121.5v3H1v3.5h29m-27-6.5v-2m1 0v-2m1 0v-1m1 0v-1m.5-.5h2m0-1h3m0-1H16m3.5 0H16m0 0V96.5m1 0v-4m1 0v-3m1 0v-2m1 0v-2m1 0v-1m1 0v-1m.5-.5h2m0-1h3m0-1h8m0 1h3m0 1h2m.5.5v1m1 0v1m1 0v2m1 0v2m1 0v3m1 0V97m-2 0h4m3.5 0H48m0 0V80.5M51.5 98h3m0 1h2m0 1h1m0 1h1m.5.5v2m1 0v2m1 0v3m1 0v4M43.5 98h-3m0 1h-2m-.5.5v1m-1 0v1m-1 0v2m-1 0v2m-1 0v3m-1 0v4M19.5 114h3m0 1h2m.5.5v1m1 0v1m1 0v2m1 0v2m1 0v3m1 0v3.5m19-48.5v1"/>
</svg>
