<svg xmlns="http://www.w3.org/2000/svg" width="32" height="64" fill="none" viewBox="0 0 32 64">
  <path fill="#C24108" d="M7 1h18v2h4v3h2v4h-3V9h-2v3h-2v3h-3v-3h-2v-2h-6v3h-1v2H9v-2H8V8H7v1H5v2H4v2H2v-2H1V5h2V3h4V1Z"/>
  <path fill="#000" d="M15 7h3v57h-3zm2-7h4v1h4v1h2v1h2v1h1v1h1v2h1v3h-1V8h-1V6h-1V5h-1V4h-2V3h-2V2h-4V1h-3V0Zm-1 6h1v1h-1V6Z"/>
  <path fill="#000" fill-rule="evenodd" d="M17 2V1h-1V0h-5v1H7v1H5v1H3v1H2v1H1v2H0v3h1v2h1v1h1v1h2v-3h1V9h1v3h1v2h1v1h1v1h2v-1h1v-2h1v-3h4v1h1v1h1v3h1v1h2v-1h1v-1h1v-2h1V9h1v1h1v1h3v-1h-3V9h-1V8h-2V6h-1V5h-1V4h-1V3h-2V2h-3Zm-1 0h1v1h2v1h2v1h1v1h1v1h1v2h1v3h-1v2h-1v1h-2v-3h-1v-2h-1V8h-5v2h-1v3h-1v2h-2v-1H9v-2H8V9h1V7h1V6h1V5h1V4h2V3h2V2Zm0 0h-2v1h-2v1h-1v1h-1v1H9v1H7v1H6v1H5v2H4v2H3v-1H2v-2H1V7h1V5h1V4h2V3h2V2h4V1h5v1ZM7 8v1h1V8H7Z" clip-rule="evenodd"/>
  <path fill="#FC8E2E" d="M16 1h-5v1H7v1H5v1H3v1H2v2H1v3h1V8h1V6h1V5h2V4h2V3h4V2h4V1Z"/>
  <path fill="#FC8E2E" d="M14 3h2v1h-1v1h-2v1h-1v1h-1v2h-1v4h1v2h-1v-1H9v-2H8V9h1V7h1V6h1V5h1V4h2V3Z"/>
</svg>
