<svg width="96" height="90" viewBox="0 0 96 90" fill="none" xmlns="http://www.w3.org/2000/svg">
<path opacity="0.5" d="M13 1H95V75H90V76H89V89H13V1Z" fill="#BDBBBC"/>
<path d="M4 2H2V74H5V75H6V76H7V88H12V2H8V3H4V2Z" fill="#A1A09E"/>
<path d="M1 1H0V75H1V1Z" fill="#5C5B59"/>
<path d="M13 1H12V89H13V1Z" fill="#BDBBBC"/>
<path d="M2 1H1V75H2V1Z" fill="#BDBBBC"/>
<path d="M5 75H2V74H5V75Z" fill="#BDBBBC"/>
<path d="M6 76H5V75H6V76Z" fill="#BDBBBC"/>
<path d="M12 89H7V88H12V89Z" fill="#BDBBBC"/>
<path d="M7 89H6V76H7V89Z" fill="#BDBBBC"/>
<path d="M5 75H1V76H5V75Z" fill="#5C5B59"/>
<path d="M6 76H5V89H6V76Z" fill="#5C5B59"/>
<path d="M14 78H13V89H14V78Z" fill="#5C5B59"/>
<path d="M30 78H29V89H30V78Z" fill="#5C5B59"/>
<path d="M64 89H6V90H64V89Z" fill="#5C5B59"/>
<path d="M32 0H30V1H32V0Z" fill="#5C5B59"/>
<path d="M33 0H32V1H33V0Z" fill="#C1AA14"/>
<path d="M83 0H82V1H83V0Z" fill="#C1AA14"/>
<path d="M82 0H33V1H82V0Z" fill="#DEC218"/>
<path d="M87 0H83V1H87V0Z" fill="#5C5B59"/>
<path d="M91 1H87V2H91V1Z" fill="#5C5B59"/>
<path d="M95 0H91V1H95V0Z" fill="#5C5B59"/>
<path d="M96 1H95V75H96V1Z" fill="#5C5B59"/>
<path d="M4 0H1V1H4V0Z" fill="#5C5B59"/>
<path d="M13 0H8V1H13V0Z" fill="#5C5B59"/>
<path d="M8 1H4V2H8V1Z" fill="#5C5B59"/>
<path d="M4 2H2V1H4V2Z" fill="#BDBBBC"/>
<path d="M12 2H8V1H12V2Z" fill="#BDBBBC"/>
<path d="M8 3H4V2H8V3Z" fill="#BDBBBC"/>
<path d="M95 76H90V75H95V76Z" fill="#5C5B59"/>
<path d="M90 89H89V76H90V89Z" fill="#5C5B59"/>
<path d="M89 90H64V89H89V90Z" fill="#5C5B59"/>
<path d="M87 2H84V64H83V65H32V64H31V88H88V75H89V74H94V2H91V3H87V2Z" fill="#8B8B8B"/>
<rect x="13" y="1" width="17" height="13" fill="#393738"/>
<rect x="14" y="2" width="15" height="1" fill="#646364"/>
<rect x="14" y="6" width="15" height="1" fill="#646364"/>
<rect x="14" y="10" width="15" height="1" fill="#646364"/>
<rect x="14" y="3" width="15" height="1" fill="#A1A09E"/>
<rect x="14" y="7" width="15" height="1" fill="#A1A09E"/>
<rect x="14" y="11" width="15" height="1" fill="#A1A09E"/>
<rect x="13" y="14" width="17" height="8" fill="#5C5B59"/>
<rect x="14" y="14" width="15" height="1" fill="#8A8A8A"/>
<rect x="14" y="18" width="15" height="1" fill="#8A8A8A"/>
<rect x="14" y="15" width="15" height="1" fill="#BDBBBC"/>
<rect x="14" y="19" width="15" height="1" fill="#BDBBBC"/>
<rect x="13" y="30" width="17" height="8" fill="#5C5B59"/>
<rect x="14" y="30" width="15" height="1" fill="#8A8A8A"/>
<rect x="14" y="34" width="15" height="1" fill="#8A8A8A"/>
<rect x="14" y="31" width="15" height="1" fill="#BDBBBC"/>
<rect x="14" y="35" width="15" height="1" fill="#BDBBBC"/>
<rect x="13" y="46" width="17" height="8" fill="#5C5B59"/>
<rect x="14" y="46" width="15" height="1" fill="#8A8A8A"/>
<rect x="14" y="50" width="15" height="1" fill="#8A8A8A"/>
<rect x="14" y="47" width="15" height="1" fill="#BDBBBC"/>
<rect x="14" y="51" width="15" height="1" fill="#BDBBBC"/>
<rect x="13" y="62" width="17" height="8" fill="#5C5B59"/>
<rect x="14" y="62" width="15" height="1" fill="#8A8A8A"/>
<rect x="14" y="66" width="15" height="1" fill="#8A8A8A"/>
<rect x="14" y="63" width="15" height="1" fill="#BDBBBC"/>
<rect x="14" y="67" width="15" height="1" fill="#BDBBBC"/>
<rect x="13" y="22" width="17" height="8" fill="#5C5B59"/>
<rect x="14" y="22" width="15" height="1" fill="#8A8A8A"/>
<rect x="14" y="26" width="15" height="1" fill="#8A8A8A"/>
<rect x="14" y="23" width="15" height="1" fill="#BDBBBC"/>
<rect x="14" y="27" width="15" height="1" fill="#BDBBBC"/>
<rect x="13" y="38" width="17" height="8" fill="#5C5B59"/>
<rect x="14" y="38" width="15" height="1" fill="#8A8A8A"/>
<rect x="14" y="42" width="15" height="1" fill="#8A8A8A"/>
<rect x="14" y="39" width="15" height="1" fill="#BDBBBC"/>
<rect x="14" y="43" width="15" height="1" fill="#BDBBBC"/>
<rect x="13" y="54" width="17" height="8" fill="#5C5B59"/>
<rect x="14" y="54" width="15" height="1" fill="#8A8A8A"/>
<rect x="14" y="58" width="15" height="1" fill="#8A8A8A"/>
<rect x="14" y="55" width="15" height="1" fill="#BDBBBC"/>
<rect x="14" y="59" width="15" height="1" fill="#BDBBBC"/>
<rect x="13" y="70" width="17" height="8" fill="#5C5B59"/>
<rect x="14" y="70" width="15" height="1" fill="#8A8A8A"/>
<rect x="14" y="74" width="15" height="1" fill="#8A8A8A"/>
<rect x="14" y="71" width="15" height="1" fill="#BDBBBC"/>
<rect x="14" y="75" width="15" height="1" fill="#BDBBBC"/>
<rect x="14" y="78" width="15" height="11" fill="#8B8B8B"/>
<path d="M32 1H83V63H82V64H33V63H32V1Z" fill="#C1AA14"/>
<path d="M33 1H82V62.0159H81.0392V63H33.9608V62.0159H33V1Z" fill="#FCF751"/>
<rect x="40" y="75" width="1" height="1" fill="#BDBBBC"/>
<rect x="41" y="74" width="1" height="1" fill="#BDBBBC"/>
<rect x="39" y="74" width="1" height="1" fill="#BDBBBC"/>
<rect x="38" y="73" width="1" height="1" fill="#BDBBBC"/>
<rect x="37" y="72" width="1" height="1" fill="#BDBBBC"/>
<rect x="36" y="71" width="1" height="1" fill="#BDBBBC"/>
<rect x="35" y="70" width="1" height="1" fill="#BDBBBC"/>
<rect x="42" y="73" width="1" height="1" fill="#BDBBBC"/>
<rect x="43" y="72" width="1" height="1" fill="#BDBBBC"/>
<rect x="44" y="71" width="1" height="1" fill="#BDBBBC"/>
<rect x="45" y="70" width="1" height="1" fill="#BDBBBC"/>
<rect x="36" y="69" width="9" height="1" fill="#BDBBBC"/>
<path d="M45 70H36V71H37V72H38V73H39V74H40V75H41V74H42V73H43V72H44V71H45V70Z" fill="#5C5B59"/>
<path d="M41.085 55.125V49H42.835V54.25H46.335V55.125H41.085ZM47.98 55.125V54.25H47.105V50.75H48.855V54.25H51.48V50.75H53.23V55.125H47.98ZM56.625 49.875V49H58.375V49.875H56.625ZM54.875 55.125V54.25H56.625V51.625H55.75V50.75H58.375V54.25H60.125V55.125H54.875ZM61.77 56V55.125H65.27V54.25H61.77V53.375H60.895V51.625H61.77V50.75H67.02V55.125H66.145V56H61.77ZM62.645 53.375H65.27V51.625H62.645V53.375ZM70.415 49.875V49H72.165V49.875H70.415ZM68.665 55.125V54.25H70.415V51.625H69.54V50.75H72.165V54.25H73.915V55.125H68.665Z" fill="#181818"/>
<path d="M63 25H52V28H51V30H52V32H56V34H53V40H65V34H61V32H63V25Z" fill="#F0D0B0"/>
<path d="M57 21H60V22H61V23H57V24H56V25H54V26H53V24H54V23H55V22H57V21Z" fill="#5BDB57"/>
<path d="M61 35V34H59V36H60V37H61V38H63V36H62V35H61Z" fill="#5BDB57"/>
<path d="M53 34H52V35H51V38H52V37H53V36H54V35H57V36H58V35H57V34H56V33H53V34Z" fill="#5BDB57"/>
<path d="M65 39H63V40H62V44H64V43H65V39Z" fill="#5BDB57"/>
<path d="M53 45H51V42H52V40H54V41H53V45Z" fill="#5BDB57"/>
<path d="M54 36H57V35H54V36Z" fill="black"/>
<path d="M54 36H53V37H54V36Z" fill="black"/>
<path d="M58 26H59V28H58V26Z" fill="black"/>
<path d="M61 26H60V28H61V26Z" fill="black"/>
<path d="M63 38V40H62V44H64V43H65V39H64V38H63Z" fill="black"/>
<path fill-rule="evenodd" clip-rule="evenodd" d="M61 20H57V21H55V22H54V23H53V24H52V26H51V28H50V30H51V31H52V32H53V33H52V34H51V35H50V38H51V39H52V40H51V41H50V45H51V46H53V45H55V44H58V43H61V44H62V45H65V44H66V39H65V37H66V34H65V33H63V34H62V32H63V31H65V30H64V28H63V26H64V24H63V23H62V21H61V20ZM61 23V22H60V21H57V22H55V23H54V24H53V26H54V25H56V26H55V28H56V29H55V30H54V29H53V27H52V28H51V30H52V31H54V32H56V33H53V34H52V35H51V38H52V37H53V39H54V40H52V42H51V45H53V41H54V40H57V39H58V37H57V36H58V35H57V34H56V33H61V32H58V31H56V30H57V29H58V30H60V31H62V30H63V28H62V25H56V24H57V23H61ZM61 38H63V36H62V35H61V34H59V36H60V37H61V38ZM61 38H59V40H61V38Z" fill="black"/>
<path d="M63 34V35H64V37H65V34H63Z" fill="black"/>
</svg>
