<svg xmlns="http://www.w3.org/2000/svg" width="96" height="91" fill="none" viewBox="0 0 96 91">
  <g class="Group 78">
    <g class="Group 57">
      <path fill="#BDBBBC" d="M13 1.5h82v74h-5v1h-1v13H13v-88Z" class="Rectangle 88" opacity=".5"/>
      <path fill="#A1A09E" d="M4 2.5H2v72h3v1h1v1h1v12h5v-86H8v1H4v-1Z" class="Vector 27"/>
      <path fill="#5C5B59" d="M1 1.5H0v74h1v-74Z" class="Vector 10"/>
      <path fill="#BDBBBC" d="M13 1.5h-1v88h1v-88Z" class="Vector 18"/>
      <path fill="#BDBBBC" d="M2 1.5H1v74h1v-74Z" class="Vector 19"/>
      <path fill="#BDBBBC" d="M5 75.5H2v-1h3v1Z" class="Vector 20"/>
      <path fill="#BDBBBC" d="M6 76.5H5v-1h1v1Z" class="Vector 21"/>
      <path fill="#BDBBBC" d="M12 89.5H7v-1h5v1Z" class="Vector 23"/>
      <path fill="#BDBBBC" d="M7 89.5H6v-13h1v13Z" class="Vector 22"/>
      <path fill="#5C5B59" d="M5 75.5H1v1h4v-1Z" class="Vector 11"/>
      <path fill="#5C5B59" d="M6 76.5H5v13h1v-13Z" class="Vector 12"/>
      <path fill="#5C5B59" d="M14 78.5h-1v11h1v-11Z" class="Vector 38"/>
      <path fill="#5C5B59" d="M30 78.5h-1v11h1v-11Z" class="Vector 39"/>
      <path fill="#5C5B59" d="M64 89.5H6v1h58v-1Z" class="Vector 13"/>
      <path fill="#5C5B59" d="M32 .5h-2v1h2v-1Z" class="Vector 14"/>
      <path fill="#C1AA14" d="M33 .5h-1v1h1v-1Z" class="Vector 34"/>
      <path fill="#C1AA14" d="M83 .5h-1v1h1v-1Z" class="Vector 36"/>
      <path fill="#DEC218" d="M82 .5H33v1h49v-1Z" class="Vector 35"/>
      <path fill="#5C5B59" d="M87 .5h-4v1h4v-1Z" class="Vector 28"/>
      <path fill="#5C5B59" d="M91 1.5h-4v1h4v-1Z" class="Vector 37"/>
      <path fill="#5C5B59" d="M95 .5h-4v1h4v-1Z" class="Vector 29"/>
      <path fill="#5C5B59" d="M96 1.5h-1v74h1v-74Z" class="Vector 30"/>
      <path fill="#5C5B59" d="M4 .5H1v1h3v-1Z" class="Vector 15"/>
      <path fill="#5C5B59" d="M13 .5H8v1h5v-1Z" class="Vector 16"/>
      <path fill="#5C5B59" d="M8 1.5H4v1h4v-1Z" class="Vector 17"/>
      <path fill="#BDBBBC" d="M4 2.5H2v-1h2v1Z" class="Vector 24"/>
      <path fill="#BDBBBC" d="M12 2.5H8v-1h4v1Z" class="Vector 25"/>
      <path fill="#BDBBBC" d="M8 3.5H4v-1h4v1Z" class="Vector 26"/>
      <path fill="#5C5B59" d="M95 76.5h-5v-1h5v1Z" class="Vector 31"/>
      <path fill="#5C5B59" d="M90 89.5h-1v-13h1v13Z" class="Vector 32"/>
      <path fill="#5C5B59" d="M89 90.5H64v-1h25v1Z" class="Vector 33"/>
      <path fill="#8B8B8B" d="M87 2.5h-3v62h-1v1H32v-1h-1v24h57v-13h1v-1h5v-72h-3v1h-4v-1Z" class="Union"/>
      <g class="Group 42">
        <path fill="#393738" d="M13 1.5h17v13H13z" class="Rectangle 89"/>
        <path fill="#646364" d="M14 2.5h15v1H14z" class="Rectangle 90"/>
        <path fill="#646364" d="M14 6.5h15v1H14z" class="Rectangle 92"/>
        <path fill="#646364" d="M14 10.5h15v1H14z" class="Rectangle 94"/>
        <path fill="#A1A09E" d="M14 3.5h15v1H14z" class="Rectangle 91"/>
        <path fill="#A1A09E" d="M14 7.5h15v1H14z" class="Rectangle 93"/>
        <path fill="#A1A09E" d="M14 11.5h15v1H14z" class="Rectangle 95"/>
      </g>
      <g class="Group 43">
        <path fill="#5C5B59" d="M13 14.5h17v8H13z" class="Rectangle 96"/>
        <path fill="#8A8A8A" d="M14 14.5h15v1H14z" class="Rectangle 94"/>
        <path fill="#8A8A8A" d="M14 18.5h15v1H14z" class="Rectangle 97"/>
        <path fill="#BDBBBC" d="M14 15.5h15v1H14z" class="Rectangle 95"/>
        <path fill="#BDBBBC" d="M14 19.5h15v1H14z" class="Rectangle 98"/>
      </g>
      <g class="Group 45">
        <path fill="#5C5B59" d="M13 30.5h17v8H13z" class="Rectangle 96"/>
        <path fill="#8A8A8A" d="M14 30.5h15v1H14z" class="Rectangle 94"/>
        <path fill="#8A8A8A" d="M14 34.5h15v1H14z" class="Rectangle 97"/>
        <path fill="#BDBBBC" d="M14 31.5h15v1H14z" class="Rectangle 95"/>
        <path fill="#BDBBBC" d="M14 35.5h15v1H14z" class="Rectangle 98"/>
      </g>
      <g class="Group 47">
        <path fill="#5C5B59" d="M13 46.5h17v8H13z" class="Rectangle 96"/>
        <path fill="#8A8A8A" d="M14 46.5h15v1H14z" class="Rectangle 94"/>
        <path fill="#8A8A8A" d="M14 50.5h15v1H14z" class="Rectangle 97"/>
        <path fill="#BDBBBC" d="M14 47.5h15v1H14z" class="Rectangle 95"/>
        <path fill="#BDBBBC" d="M14 51.5h15v1H14z" class="Rectangle 98"/>
      </g>
      <g class="Group 49">
        <path fill="#5C5B59" d="M13 62.5h17v8H13z" class="Rectangle 96"/>
        <path fill="#8A8A8A" d="M14 62.5h15v1H14z" class="Rectangle 94"/>
        <path fill="#8A8A8A" d="M14 66.5h15v1H14z" class="Rectangle 97"/>
        <path fill="#BDBBBC" d="M14 63.5h15v1H14z" class="Rectangle 95"/>
        <path fill="#BDBBBC" d="M14 67.5h15v1H14z" class="Rectangle 98"/>
      </g>
      <g class="Group 44">
        <path fill="#5C5B59" d="M13 22.5h17v8H13z" class="Rectangle 96"/>
        <path fill="#8A8A8A" d="M14 22.5h15v1H14z" class="Rectangle 94"/>
        <path fill="#8A8A8A" d="M14 26.5h15v1H14z" class="Rectangle 97"/>
        <path fill="#BDBBBC" d="M14 23.5h15v1H14z" class="Rectangle 95"/>
        <path fill="#BDBBBC" d="M14 27.5h15v1H14z" class="Rectangle 98"/>
      </g>
      <g class="Group 46">
        <path fill="#5C5B59" d="M13 38.5h17v8H13z" class="Rectangle 96"/>
        <path fill="#8A8A8A" d="M14 38.5h15v1H14z" class="Rectangle 94"/>
        <path fill="#8A8A8A" d="M14 42.5h15v1H14z" class="Rectangle 97"/>
        <path fill="#BDBBBC" d="M14 39.5h15v1H14z" class="Rectangle 95"/>
        <path fill="#BDBBBC" d="M14 43.5h15v1H14z" class="Rectangle 98"/>
      </g>
      <g class="Group 48">
        <path fill="#5C5B59" d="M13 54.5h17v8H13z" class="Rectangle 96"/>
        <path fill="#8A8A8A" d="M14 54.5h15v1H14z" class="Rectangle 94"/>
        <path fill="#8A8A8A" d="M14 58.5h15v1H14z" class="Rectangle 97"/>
        <path fill="#BDBBBC" d="M14 55.5h15v1H14z" class="Rectangle 95"/>
        <path fill="#BDBBBC" d="M14 59.5h15v1H14z" class="Rectangle 98"/>
      </g>
      <g class="Group 50">
        <path fill="#5C5B59" d="M13 70.5h17v8H13z" class="Rectangle 96"/>
        <path fill="#8A8A8A" d="M14 70.5h15v1H14z" class="Rectangle 94"/>
        <path fill="#8A8A8A" d="M14 74.5h15v1H14z" class="Rectangle 97"/>
        <path fill="#BDBBBC" d="M14 71.5h15v1H14z" class="Rectangle 95"/>
        <path fill="#BDBBBC" d="M14 75.5h15v1H14z" class="Rectangle 98"/>
      </g>
      <path fill="#8B8B8B" d="M14 78.5h15v11H14z" class="Rectangle 99"/>
      <path fill="url(#a)" d="M32 1.75h51v62.984h-1v1.016H33v-1.016h-1V1.75Z" class="Rectangle 102"/>
      <g class="Group 52">
        <g class="Group 51">
          <path fill="#BDBBBC" d="M40 75.5h1v1h-1z" class="Rectangle 102"/>
          <path fill="#BDBBBC" d="M41 74.5h1v1h-1z" class="Rectangle 103"/>
          <path fill="#BDBBBC" d="M39 74.5h1v1h-1z" class="Rectangle 110"/>
          <path fill="#BDBBBC" d="M38 73.5h1v1h-1z" class="Rectangle 111"/>
          <path fill="#BDBBBC" d="M37 72.5h1v1h-1z" class="Rectangle 112"/>
          <path fill="#BDBBBC" d="M36 71.5h1v1h-1z" class="Rectangle 113"/>
          <path fill="#BDBBBC" d="M35 70.5h1v1h-1z" class="Rectangle 114"/>
          <path fill="#BDBBBC" d="M42 73.5h1v1h-1z" class="Rectangle 104"/>
          <path fill="#BDBBBC" d="M43 72.5h1v1h-1z" class="Rectangle 105"/>
          <path fill="#BDBBBC" d="M44 71.5h1v1h-1z" class="Rectangle 106"/>
          <path fill="#BDBBBC" d="M45 70.5h1v1h-1z" class="Rectangle 107"/>
          <path fill="#BDBBBC" d="M36 69.5h9v1h-9z" class="Rectangle 108"/>
          <path fill="#5C5B59" d="M45 70.5h-9v1h1v1h1v1h1v1h1v1h1v-1h1v-1h1v-1h1v-1h1v-1Z" class="Vector 40"/>
        </g>
      </g>
    </g>
    <g class="Group 67">
      <path fill="#181818" d="M43.085 59.625V53.5h1.75v5.25h3.5v.875h-5.25Zm6.895 0v-.875h-.875v-3.5h1.75v3.5h2.625v-3.5h1.75v4.375h-5.25Zm8.645-5.25V53.5h1.75v.875h-1.75Zm-1.75 5.25v-.875h1.75v-2.625h-.875v-.875h2.625v3.5h1.75v.875h-5.25Zm6.895.875v-.875h3.5v-.875h-3.5v-.875h-.875v-1.75h.875v-.875h5.25v4.375h-.875v.875H63.77Zm.875-2.625h2.625v-1.75h-2.625v1.75Zm7.77-3.5V53.5h1.75v.875h-1.75Zm-1.75 5.25v-.875h1.75v-2.625h-.875v-.875h2.625v3.5h1.75v.875h-5.25Z" class="Luigi"/>
      <g class="char/luigi/lg-run">
        <path fill="#F0D0B0" d="M65.688 14.616H49.874v4.269h-1.438v2.846h1.438v2.846h5.75v2.846h-4.313v8.539h17.25v-8.539h-5.75v-2.846h2.876v-9.962Z" class="tan"/>
        <path fill="#5BDB57" d="M57.063 8.923h4.312v1.423h1.438v1.423h-5.75v1.423h-1.438v1.423H52.75v1.423h-1.438v-2.846h1.438V11.77h1.438v-1.423h2.874V8.923Zm5.75 19.923v-1.423h-2.876v2.846h1.438v1.423h1.438v1.423h2.874V30.27H64.25v-1.423h-1.438Zm-11.5-1.423h-1.438v1.423h-1.438v4.27h1.438v-1.424h1.438V30.27h1.437v-1.423h4.313v1.423H58.5v-1.423h-1.438v-1.423h-1.437V26h-4.313v1.423Zm17.25 7.115h-2.876v1.424H64.25v5.692h2.875V40.23h1.438v-5.693Zm-17.25 8.539h-2.876v-4.27h1.438v-2.845h2.875v1.423h-1.438v5.692Z" class="green"/>
        <g class="black">
          <path fill="#000" d="M52.75 30.27h4.313v-1.424H52.75v1.423Zm0 0h-1.438v1.422h1.438V30.27Zm5.75-14.232h1.438v2.847H58.5v-2.847Zm4.313 0h-1.438v2.847h1.438v-2.847Zm2.875 17.077v2.846H64.25v5.693h2.875V40.23h1.438v-5.693h-1.438v-1.423h-1.438Z"/>
          <path fill="#000" fill-rule="evenodd" d="M62.813 7.5h-5.75v1.423h-2.876v1.423H52.75v1.423h-1.438v1.423h-1.437v2.846h-1.438v2.847H47v2.846h1.438v1.423h1.437v1.423h1.438V26h-1.438v1.423h-1.438v1.423H47v4.27h1.438v1.422h1.437v1.424h-1.438v1.423H47v5.692h1.438V44.5h2.874v-1.423h2.876v-1.423H58.5V40.23h4.313v1.423h1.437v1.423h4.313v-1.423H70v-7.116h-1.438v-2.846H70v-4.269h-1.438V26h-2.874v1.423H64.25v-2.846h1.438v-1.423h2.874V21.73h-1.437v-2.846h-1.438v-2.847h1.438v-2.846h-1.438V11.77H64.25V8.923h-1.438V7.5Zm0 4.27v-1.424h-1.438V8.923h-4.313v1.423h-2.874v1.423H52.75v1.423h-1.438v2.846h1.438v-1.423h2.875v1.423h-1.438v2.847h1.438v1.423h-1.438v1.423H52.75v-1.423h-1.438v-2.846h-1.437v1.423h-1.438v2.846h1.438v1.423h2.875v1.423h2.875V26h-4.313v1.423h-1.437v1.423h-1.438v4.27h1.438v-1.424h1.438v2.846h1.437v1.424h-2.875v2.846h-1.438v4.269h2.876v-5.692h1.437v-1.423h4.313v-1.424H58.5v-2.846h-1.438V30.27H58.5v-1.423h-1.438v-1.423h-1.437V26h7.188v-1.423H58.5v-1.423h-2.875V21.73h1.438v-1.423H58.5v1.423h2.875v1.423h2.875V21.73h1.438v-2.846H64.25v-4.27h-8.625v-1.423h1.438V11.77h5.75Zm0 21.345h2.874V30.27H64.25v-1.423h-1.438v-1.423h-2.874v2.846h1.437v1.423h1.438v1.423Zm0 0h-2.876v2.846h2.876v-2.846Z" clip-rule="evenodd"/>
          <path fill="#000" d="M65.688 27.423v1.423h1.437v2.846h1.438v-4.269h-2.876Z"/>
        </g>
      </g>
    </g>
  </g>
  <defs>
    <linearGradient id="a" x1="57.5" x2="57.5" y1="1.75" y2="65.75" class="a" gradientUnits="userSpaceOnUse">
      <stop stop-color="#FD0"/>
      <stop offset="1" stop-color="#C58E00" stop-opacity=".58"/>
    </linearGradient>
  </defs>
</svg>
