<svg width="96" height="90" viewBox="0 0 96 90" fill="none" xmlns="http://www.w3.org/2000/svg">
<path opacity="0.5" d="M13 1H95V75H90V76H89V89H13V1Z" fill="#BDBBBC"/>
<path d="M4 2H2V74H5V75H6V76H7V88H12V2H8V3H4V2Z" fill="#A1A09E"/>
<path d="M1 1H0V75H1V1Z" fill="#5C5B59"/>
<path d="M13 1H12V89H13V1Z" fill="#BDBBBC"/>
<path d="M2 1H1V75H2V1Z" fill="#BDBBBC"/>
<path d="M5 75H2V74H5V75Z" fill="#BDBBBC"/>
<path d="M6 76H5V75H6V76Z" fill="#BDBBBC"/>
<path d="M12 89H7V88H12V89Z" fill="#BDBBBC"/>
<path d="M7 89H6V76H7V89Z" fill="#BDBBBC"/>
<path d="M5 75H1V76H5V75Z" fill="#5C5B59"/>
<path d="M6 76H5V89H6V76Z" fill="#5C5B59"/>
<path d="M14 78H13V89H14V78Z" fill="#5C5B59"/>
<path d="M30 78H29V89H30V78Z" fill="#5C5B59"/>
<path d="M64 89H6V90H64V89Z" fill="#5C5B59"/>
<path d="M32 0H30V1H32V0Z" fill="#5C5B59"/>
<path d="M33 0H32V1H33V0Z" fill="#C1AA14"/>
<path d="M83 0H82V1H83V0Z" fill="#C1AA14"/>
<path d="M82 0H33V1H82V0Z" fill="#DEC218"/>
<path d="M87 0H83V1H87V0Z" fill="#5C5B59"/>
<path d="M91 1H87V2H91V1Z" fill="#5C5B59"/>
<path d="M95 0H91V1H95V0Z" fill="#5C5B59"/>
<path d="M96 1H95V75H96V1Z" fill="#5C5B59"/>
<path d="M4 0H1V1H4V0Z" fill="#5C5B59"/>
<path d="M13 0H8V1H13V0Z" fill="#5C5B59"/>
<path d="M8 1H4V2H8V1Z" fill="#5C5B59"/>
<path d="M4 2H2V1H4V2Z" fill="#BDBBBC"/>
<path d="M12 2H8V1H12V2Z" fill="#BDBBBC"/>
<path d="M8 3H4V2H8V3Z" fill="#BDBBBC"/>
<path d="M95 76H90V75H95V76Z" fill="#5C5B59"/>
<path d="M90 89H89V76H90V89Z" fill="#5C5B59"/>
<path d="M89 90H64V89H89V90Z" fill="#5C5B59"/>
<path d="M87 2H84V64H83V65H32V64H31V88H88V75H89V74H94V2H91V3H87V2Z" fill="#8B8B8B"/>
<rect x="13" y="1" width="17" height="13" fill="#393738"/>
<rect x="14" y="2" width="15" height="1" fill="#646364"/>
<rect x="14" y="6" width="15" height="1" fill="#646364"/>
<rect x="14" y="10" width="15" height="1" fill="#646364"/>
<rect x="14" y="3" width="15" height="1" fill="#A1A09E"/>
<rect x="14" y="7" width="15" height="1" fill="#A1A09E"/>
<rect x="14" y="11" width="15" height="1" fill="#A1A09E"/>
<rect x="13" y="14" width="17" height="8" fill="#5C5B59"/>
<rect x="14" y="14" width="15" height="1" fill="#8A8A8A"/>
<rect x="14" y="18" width="15" height="1" fill="#8A8A8A"/>
<rect x="14" y="15" width="15" height="1" fill="#BDBBBC"/>
<rect x="14" y="19" width="15" height="1" fill="#BDBBBC"/>
<rect x="13" y="30" width="17" height="8" fill="#5C5B59"/>
<rect x="14" y="30" width="15" height="1" fill="#8A8A8A"/>
<rect x="14" y="34" width="15" height="1" fill="#8A8A8A"/>
<rect x="14" y="31" width="15" height="1" fill="#BDBBBC"/>
<rect x="14" y="35" width="15" height="1" fill="#BDBBBC"/>
<rect x="13" y="46" width="17" height="8" fill="#5C5B59"/>
<rect x="14" y="46" width="15" height="1" fill="#8A8A8A"/>
<rect x="14" y="50" width="15" height="1" fill="#8A8A8A"/>
<rect x="14" y="47" width="15" height="1" fill="#BDBBBC"/>
<rect x="14" y="51" width="15" height="1" fill="#BDBBBC"/>
<rect x="13" y="62" width="17" height="8" fill="#5C5B59"/>
<rect x="14" y="62" width="15" height="1" fill="#8A8A8A"/>
<rect x="14" y="66" width="15" height="1" fill="#8A8A8A"/>
<rect x="14" y="63" width="15" height="1" fill="#BDBBBC"/>
<rect x="14" y="67" width="15" height="1" fill="#BDBBBC"/>
<rect x="13" y="22" width="17" height="8" fill="#5C5B59"/>
<rect x="14" y="22" width="15" height="1" fill="#8A8A8A"/>
<rect x="14" y="26" width="15" height="1" fill="#8A8A8A"/>
<rect x="14" y="23" width="15" height="1" fill="#BDBBBC"/>
<rect x="14" y="27" width="15" height="1" fill="#BDBBBC"/>
<rect x="13" y="38" width="17" height="8" fill="#5C5B59"/>
<rect x="14" y="38" width="15" height="1" fill="#8A8A8A"/>
<rect x="14" y="42" width="15" height="1" fill="#8A8A8A"/>
<rect x="14" y="39" width="15" height="1" fill="#BDBBBC"/>
<rect x="14" y="43" width="15" height="1" fill="#BDBBBC"/>
<rect x="13" y="54" width="17" height="8" fill="#5C5B59"/>
<rect x="14" y="54" width="15" height="1" fill="#8A8A8A"/>
<rect x="14" y="58" width="15" height="1" fill="#8A8A8A"/>
<rect x="14" y="55" width="15" height="1" fill="#BDBBBC"/>
<rect x="14" y="59" width="15" height="1" fill="#BDBBBC"/>
<rect x="13" y="70" width="17" height="8" fill="#5C5B59"/>
<rect x="14" y="70" width="15" height="1" fill="#8A8A8A"/>
<rect x="14" y="74" width="15" height="1" fill="#8A8A8A"/>
<rect x="14" y="71" width="15" height="1" fill="#BDBBBC"/>
<rect x="14" y="75" width="15" height="1" fill="#BDBBBC"/>
<rect x="14" y="78" width="15" height="11" fill="#8B8B8B"/>
<path d="M32 1H83V63H82V64H33V63H32V1Z" fill="#C1AA14"/>
<g filter="url(#filter0_d_1_261)">
<path d="M33 1H82V62.0159H81.0392V63H33.9608V62.0159H33V1Z" fill="url(#paint0_linear_1_261)" shape-rendering="crispEdges"/>
</g>
<rect x="40" y="75" width="1" height="1" fill="#BDBBBC"/>
<rect x="41" y="74" width="1" height="1" fill="#BDBBBC"/>
<rect x="39" y="74" width="1" height="1" fill="#BDBBBC"/>
<rect x="38" y="73" width="1" height="1" fill="#BDBBBC"/>
<rect x="37" y="72" width="1" height="1" fill="#BDBBBC"/>
<rect x="36" y="71" width="1" height="1" fill="#BDBBBC"/>
<rect x="35" y="70" width="1" height="1" fill="#BDBBBC"/>
<rect x="42" y="73" width="1" height="1" fill="#BDBBBC"/>
<rect x="43" y="72" width="1" height="1" fill="#BDBBBC"/>
<rect x="44" y="71" width="1" height="1" fill="#BDBBBC"/>
<rect x="45" y="70" width="1" height="1" fill="#BDBBBC"/>
<rect x="36" y="69" width="9" height="1" fill="#BDBBBC"/>
<path d="M45 70H36V71H37V72H38V73H39V74H40V75H41V74H42V73H43V72H44V71H45V70Z" fill="#5C5B59"/>
<path d="M40.71 51.1923V45.0673H45.96V45.9423H46.835V48.5673H45.96V49.4423H42.46V51.1923H40.71ZM42.46 48.5673H45.085V45.9423H42.46V48.5673ZM48.48 51.1923V50.3173H47.605V47.6923H48.48V46.8173H52.855V47.6923H53.73V49.4423H49.355V50.3173H52.855V51.1923H48.48ZM49.355 48.5673H51.98V47.6923H49.355V48.5673ZM55.375 51.1923V50.3173H54.5V49.4423H55.375V48.5673H58.875V47.6923H55.375V46.8173H59.75V47.6923H60.625V51.1923H55.375ZM56.25 50.3173H58.875V49.4423H56.25V50.3173ZM62.27 51.1923V50.3173H61.395V47.6923H62.27V46.8173H67.52V47.6923H63.145V50.3173H67.52V51.1923H62.27ZM68.29 51.1923V45.0673H70.04V46.8173H73.54V47.6923H74.415V51.1923H72.665V47.6923H70.04V51.1923H68.29Z" fill="#181818"/>
<rect x="50" y="38.1923" width="17" height="0.990385" fill="#342E34"/>
<rect x="59" y="31.2596" width="4" height="0.990385" fill="#342E34"/>
<rect x="59" y="28.2885" width="2" height="0.990385" fill="#342E34"/>
<rect x="56" y="29.2789" width="2" height="0.990385" fill="#342E34"/>
<rect x="57" y="30.2692" width="2" height="0.990385" fill="#342E34"/>
<rect x="51" y="27.2981" width="4" height="0.990385" fill="#342E34"/>
<rect x="53" y="24.3269" width="5" height="0.990385" fill="#342E34"/>
<rect x="53" y="21.3558" width="7" height="0.990385" fill="#342E34"/>
<rect x="62" y="21.3558" width="3" height="0.990385" fill="#342E34"/>
<rect x="63" y="19.375" width="3" height="0.990385" fill="#342E34"/>
<rect x="54" y="15.4135" width="3" height="0.990385" fill="#342E34"/>
<rect x="60" y="14.4231" width="2" height="0.990385" fill="#342E34"/>
<rect x="63" y="24.3269" width="2" height="0.990385" fill="#342E34"/>
<rect x="63" y="30.2692" width="2" height="0.990385" fill="#342E34"/>
<rect x="62" y="20.3654" width="2" height="0.990385" fill="#342E34"/>
<rect x="64" y="15.4135" width="2" height="0.990385" fill="#342E34"/>
<rect x="56" y="8.48077" width="2" height="0.990385" fill="#342E34"/>
<rect x="54" y="9.47113" width="2" height="0.990385" fill="#342E34"/>
<rect x="50" y="11.4519" width="3" height="0.990385" fill="#342E34"/>
<rect x="50" y="14.4231" width="1" height="0.990385" fill="#342E34"/>
<rect x="51" y="13.4327" width="1" height="0.990385" fill="#342E34"/>
<rect x="50" y="12.4423" width="1" height="0.990385" fill="#342E34"/>
<rect x="53" y="10.4615" width="1" height="0.990385" fill="#342E34"/>
<rect x="57" y="7.49036" width="1" height="0.990385" fill="#342E34"/>
<rect x="58" y="6.5" width="1" height="0.990385" fill="#342E34"/>
<rect x="59" y="7.49036" width="1" height="0.990385" fill="#342E34"/>
<rect x="60" y="6.5" width="1" height="0.990385" fill="#342E34"/>
<rect x="61" y="7.49036" width="1" height="0.990385" fill="#342E34"/>
<rect x="62" y="6.5" width="1" height="0.990385" fill="#342E34"/>
<rect x="63" y="14.4231" width="1" height="0.990385" fill="#342E34"/>
<rect x="65" y="20.3654" width="1" height="0.990385" fill="#342E34"/>
<rect x="50" y="17.3942" width="1" height="0.990385" fill="#342E34"/>
<rect x="50" y="20.3654" width="1" height="0.990385" fill="#342E34"/>
<rect x="50" y="24.3269" width="1" height="0.990385" fill="#342E34"/>
<rect x="51" y="25.3173" width="1" height="0.990385" fill="#342E34"/>
<rect x="50" y="26.3077" width="1" height="0.990385" fill="#342E34"/>
<rect x="52" y="22.3461" width="1" height="1.98077" fill="#342E34"/>
<rect x="62" y="23.3365" width="1" height="0.990385" fill="#342E34"/>
<rect x="63" y="25.3173" width="1" height="0.990385" fill="#342E34"/>
<rect x="64" y="26.3077" width="1" height="0.990385" fill="#342E34"/>
<rect x="58" y="27.2981" width="1" height="0.990385" fill="#342E34"/>
<rect x="56" y="27.2981" width="1" height="0.990385" fill="#342E34"/>
<rect x="55" y="28.2885" width="1" height="0.990385" fill="#342E34"/>
<rect x="64" y="16.4039" width="1" height="2.97115" fill="#342E34"/>
<rect x="62" y="15.4135" width="1" height="1.98077" fill="#342E34"/>
<rect x="66" y="13.4327" width="1" height="1.98077" fill="#342E34"/>
<rect x="65" y="11.4519" width="1" height="1.98077" fill="#342E34"/>
<rect x="64" y="9.47113" width="1" height="1.98077" fill="#342E34"/>
<rect x="63" y="7.49036" width="1" height="1.98077" fill="#342E34"/>
<rect x="59" y="15.4135" width="1" height="1.98077" fill="#342E34"/>
<rect x="56" y="16.4039" width="1" height="1.98077" fill="#342E34"/>
<rect x="54" y="16.4039" width="1" height="1.98077" fill="#342E34"/>
<rect x="56" y="19.375" width="1" height="1.98077" fill="#342E34"/>
<rect x="62" y="26.3077" width="1" height="2.97115" fill="#342E34"/>
<rect x="65" y="31.2596" width="1" height="2.97115" fill="#342E34"/>
<rect x="64" y="28.2885" width="1" height="1.98077" fill="#342E34"/>
<rect x="61" y="29.2789" width="1" height="1.98077" fill="#342E34"/>
<rect x="57" y="25.3173" width="1" height="1.98077" fill="#342E34"/>
<rect x="54" y="25.3173" width="1" height="1.98077" fill="#342E34"/>
<rect x="53" y="28.2885" width="1" height="1.98077" fill="#342E34"/>
<rect x="52" y="30.2692" width="1" height="1.98077" fill="#342E34"/>
<rect x="51" y="32.25" width="1" height="2.97115" fill="#342E34"/>
<rect x="51" y="15.4135" width="1" height="1.98077" fill="#342E34"/>
<rect x="49" y="18.3846" width="1" height="1.98077" fill="#342E34"/>
<rect x="49" y="21.3558" width="1" height="2.97115" fill="#342E34"/>
<rect x="50" y="35.2211" width="1" height="2.97115" fill="#342E34"/>
<rect x="66" y="34.2308" width="1" height="3.96154" fill="#342E34"/>
<rect x="65" y="22.3461" width="1" height="6.93269" fill="#342E34"/>
<rect x="58" y="13.4327" width="2" height="0.990385" fill="#342E34"/>
<rect x="62" y="13.4327" width="2" height="0.990385" fill="#342E34"/>
<rect x="57" y="14.4231" width="2" height="0.990385" fill="#342E34"/>
<rect x="58" y="9.47113" width="5" height="0.990385" fill="#342E34"/>
<rect x="51" y="37.2019" width="15" height="0.990385" fill="#E41664"/>
<rect x="52" y="33.2404" width="1" height="0.990385" fill="#E41664"/>
<rect x="52" y="32.25" width="3" height="0.990385" fill="#E41664"/>
<rect x="53" y="31.2596" width="3" height="0.990385" fill="#E41664"/>
<rect x="53" y="30.2692" width="4" height="0.990385" fill="#E41664"/>
<rect x="54" y="29.2789" width="2" height="0.990385" fill="#E41664"/>
<rect x="54" y="28.2885" width="1" height="0.990385" fill="#E41664"/>
<rect x="63" y="31.2596" width="2" height="0.990385" fill="#E41664"/>
<rect x="64" y="32.25" width="1" height="0.990385" fill="#E41664"/>
<rect x="57" y="23.3365" width="1" height="0.990385" fill="#E41664"/>
<rect x="60" y="21.3558" width="2" height="0.990385" fill="#E41664"/>
<rect x="60" y="19.375" width="2" height="0.990385" fill="#E41664"/>
<rect x="60" y="8.48077" width="1" height="0.990385" fill="#E41664"/>
<rect x="51" y="35.2211" width="15" height="1.98077" fill="#F496A4"/>
<rect x="52" y="34.2308" width="14" height="0.990385" fill="#F496A4"/>
<rect x="53" y="33.2404" width="12" height="0.990385" fill="#F496A4"/>
<rect x="55" y="32.25" width="9" height="0.990385" fill="#F496A4"/>
<rect x="56" y="31.2596" width="3" height="0.990385" fill="#F496A4"/>
<rect x="53" y="22.3461" width="12" height="0.990385" fill="#F496A4"/>
<rect x="53" y="23.3365" width="4" height="0.990385" fill="#F496A4"/>
<rect x="58" y="23.3365" width="4" height="0.990385" fill="#F496A4"/>
<rect x="63" y="23.3365" width="2" height="0.990385" fill="#F496A4"/>
<rect x="58" y="24.3269" width="5" height="1.98077" fill="#F496A4"/>
<rect x="58" y="26.3077" width="4" height="0.990385" fill="#F496A4"/>
<rect x="59" y="27.298" width="3" height="0.990385" fill="#F496A4"/>
<rect x="61" y="28.2885" width="1" height="0.990385" fill="#F496A4"/>
<rect x="60" y="23.3365" width="1" height="0.990385" fill="#FCDE04"/>
<rect x="60" y="26.3077" width="1" height="0.990385" fill="#FCDE04"/>
<rect x="64" y="20.3654" width="1" height="0.990385" fill="#FCDE04"/>
<rect x="51" y="26.3077" width="3" height="0.990385" fill="#FCDE04"/>
<rect x="52" y="25.3173" width="2" height="0.990385" fill="#FCDE04"/>
<rect x="51" y="24.3269" width="2" height="0.990385" fill="#FCDE04"/>
<rect x="50" y="21.3557" width="2" height="2.97115" fill="#FCDE04"/>
<rect x="52" y="21.3557" width="1" height="0.990385" fill="#FCDE04"/>
<rect x="64" y="13.4327" width="2" height="1.98077" fill="#FCDE04"/>
<rect x="51" y="19.375" width="5" height="1.98077" fill="#FCDE04"/>
<rect x="50" y="18.3846" width="1" height="1.98077" fill="#FCDE04"/>
<rect x="51" y="17.3942" width="1" height="1.98077" fill="#FCDE04"/>
<rect x="54" y="18.3846" width="1" height="0.990385" fill="#FCDE04"/>
<rect x="51" y="14.423" width="1" height="0.990385" fill="#FCDE04"/>
<rect x="51" y="12.4423" width="1" height="0.990385" fill="#FCDE04"/>
<rect x="58" y="7.49036" width="1" height="0.990385" fill="#FCDE04"/>
<rect x="59" y="8.48071" width="1" height="0.990385" fill="#FCDE04"/>
<rect x="60" y="7.49036" width="1" height="0.990385" fill="#FCDE04"/>
<rect x="61" y="8.48071" width="1" height="0.990385" fill="#FCDE04"/>
<rect x="62" y="7.49036" width="1" height="0.990385" fill="#FCDE04"/>
<rect x="63" y="9.47113" width="1" height="0.990385" fill="#FCDE04"/>
<rect x="56" y="9.47113" width="2" height="0.990385" fill="#FCDE04"/>
<rect x="53" y="11.4519" width="1" height="0.990385" fill="#FCDE04"/>
<rect x="57" y="13.4327" width="1" height="0.990385" fill="#FCDE04"/>
<rect x="54" y="10.4615" width="10" height="2.97115" fill="#FCDE04"/>
<rect x="60" y="13.4327" width="2" height="0.990385" fill="#FCDE04"/>
<rect x="64" y="11.4519" width="1" height="1.98077" fill="#FCDE04"/>
<rect x="54" y="13.4327" width="3" height="1.98077" fill="#FCDE04"/>
<rect x="52" y="12.4423" width="2" height="6.93269" fill="#FCDE04"/>
<rect x="61" y="24.3269" width="1" height="1.98077" fill="#FCDE04"/>
<rect x="59" y="24.3269" width="1" height="1.98077" fill="#FCDE04"/>
<rect x="58" y="8.48077" width="1" height="0.990385" fill="#147AE4"/>
<rect x="62" y="8.48077" width="1" height="0.990385" fill="#147AE4"/>
<rect x="55" y="18.3846" width="1" height="0.990385" fill="#147AE4"/>
<rect x="60" y="24.3269" width="1" height="1.98077" fill="#147AE4"/>
<rect x="55" y="16.4039" width="1" height="1.98077" fill="#E4B694"/>
<rect x="63" y="15.4135" width="1" height="3.96154" fill="#E4B694"/>
<rect x="62" y="14.4231" width="1" height="0.990385" fill="#E4B694"/>
<rect x="59" y="14.4231" width="1" height="0.990385" fill="#E4B694"/>
<rect x="64" y="25.3173" width="1" height="0.990385" fill="#E4B694"/>
<rect x="55" y="25.3173" width="2" height="1.98077" fill="#E4B694"/>
<rect x="55" y="27.2981" width="1" height="0.990385" fill="#E4B694"/>
<rect x="56" y="18.3846" width="1" height="0.990385" fill="#E4B694"/>
<rect x="57" y="15.4135" width="2" height="5.94231" fill="#E4B694"/>
<rect x="60" y="15.4135" width="2" height="3.96154" fill="#E4B694"/>
<rect x="59" y="17.3942" width="1" height="3.96154" fill="#E4B694"/>
<rect x="62" y="17.3942" width="1" height="2.97115" fill="#E4B694"/>
<rect x="60" y="20.3654" width="2" height="0.990385" fill="#E4B694"/>
<rect x="56" y="28.2885" width="3" height="0.990385" fill="#FCFEFC"/>
<rect x="58" y="29.2788" width="3" height="0.990385" fill="#FCFEFC"/>
<rect x="59" y="30.2692" width="2" height="0.990385" fill="#FCFEFC"/>
<rect x="57" y="27.298" width="1" height="0.990385" fill="#FCFEFC"/>
<rect x="63" y="26.3077" width="1" height="3.96154" fill="#FCFEFC"/>
<rect x="64" y="27.298" width="1" height="0.990385" fill="#FCFEFC"/>
<rect x="62" y="29.2788" width="1" height="1.98077" fill="#FCFEFC"/>
<defs>
<filter id="filter0_d_1_261" x="29" y="1" width="57" height="70" filterUnits="userSpaceOnUse" color-interpolation-filters="sRGB">
<feFlood flood-opacity="0" result="BackgroundImageFix"/>
<feColorMatrix in="SourceAlpha" type="matrix" values="0 0 0 0 0 0 0 0 0 0 0 0 0 0 0 0 0 0 127 0" result="hardAlpha"/>
<feOffset dy="4"/>
<feGaussianBlur stdDeviation="2"/>
<feComposite in2="hardAlpha" operator="out"/>
<feColorMatrix type="matrix" values="0 0 0 0 0 0 0 0 0 0 0 0 0 0 0 0 0 0 0.25 0"/>
<feBlend mode="normal" in2="BackgroundImageFix" result="effect1_dropShadow_1_261"/>
<feBlend mode="normal" in="SourceGraphic" in2="effect1_dropShadow_1_261" result="shape"/>
</filter>
<linearGradient id="paint0_linear_1_261" x1="57.5" y1="1" x2="57.5" y2="63" gradientUnits="userSpaceOnUse">
<stop offset="0.9999" stop-color="#FCF750"/>
<stop offset="1" stop-color="#FFF800" stop-opacity="0"/>
</linearGradient>
</defs>
</svg>
