<svg xmlns="http://www.w3.org/2000/svg" width="96" height="91" fill="none" viewBox="0 0 96 91">
  <g class="Group 79">
    <g class="Group 56">
      <path fill="#BDBBBC" d="M13 1.5h82v74h-5v1h-1v13H13v-88Z" class="Rectangle 88" opacity=".5"/>
      <path fill="#A1A09E" d="M4 2.5H2v72h3v1h1v1h1v12h5v-86H8v1H4v-1Z" class="Vector 27"/>
      <path fill="#5C5B59" d="M1 1.5H0v74h1v-74Z" class="Vector 10"/>
      <path fill="#BDBBBC" d="M13 1.5h-1v88h1v-88Z" class="Vector 18"/>
      <path fill="#BDBBBC" d="M2 1.5H1v74h1v-74Z" class="Vector 19"/>
      <path fill="#BDBBBC" d="M5 75.5H2v-1h3v1Z" class="Vector 20"/>
      <path fill="#BDBBBC" d="M6 76.5H5v-1h1v1Z" class="Vector 21"/>
      <path fill="#BDBBBC" d="M12 89.5H7v-1h5v1Z" class="Vector 23"/>
      <path fill="#BDBBBC" d="M7 89.5H6v-13h1v13Z" class="Vector 22"/>
      <path fill="#5C5B59" d="M5 75.5H1v1h4v-1Z" class="Vector 11"/>
      <path fill="#5C5B59" d="M6 76.5H5v13h1v-13Z" class="Vector 12"/>
      <path fill="#5C5B59" d="M14 78.5h-1v11h1v-11Z" class="Vector 38"/>
      <path fill="#5C5B59" d="M30 78.5h-1v11h1v-11Z" class="Vector 39"/>
      <path fill="#5C5B59" d="M64 89.5H6v1h58v-1Z" class="Vector 13"/>
      <path fill="#5C5B59" d="M32 .5h-2v1h2v-1Z" class="Vector 14"/>
      <path fill="#C1AA14" d="M33 .5h-1v1h1v-1Z" class="Vector 34"/>
      <path fill="#C1AA14" d="M83 .5h-1v1h1v-1Z" class="Vector 36"/>
      <path fill="#DEC218" d="M82 .5H33v1h49v-1Z" class="Vector 35"/>
      <path fill="#5C5B59" d="M87 .5h-4v1h4v-1Z" class="Vector 28"/>
      <path fill="#5C5B59" d="M91 1.5h-4v1h4v-1Z" class="Vector 37"/>
      <path fill="#5C5B59" d="M95 .5h-4v1h4v-1Z" class="Vector 29"/>
      <path fill="#5C5B59" d="M96 1.5h-1v74h1v-74Z" class="Vector 30"/>
      <path fill="#5C5B59" d="M4 .5H1v1h3v-1Z" class="Vector 15"/>
      <path fill="#5C5B59" d="M13 .5H8v1h5v-1Z" class="Vector 16"/>
      <path fill="#5C5B59" d="M8 1.5H4v1h4v-1Z" class="Vector 17"/>
      <path fill="#BDBBBC" d="M4 2.5H2v-1h2v1Z" class="Vector 24"/>
      <path fill="#BDBBBC" d="M12 2.5H8v-1h4v1Z" class="Vector 25"/>
      <path fill="#BDBBBC" d="M8 3.5H4v-1h4v1Z" class="Vector 26"/>
      <path fill="#5C5B59" d="M95 76.5h-5v-1h5v1Z" class="Vector 31"/>
      <path fill="#5C5B59" d="M90 89.5h-1v-13h1v13Z" class="Vector 32"/>
      <path fill="#5C5B59" d="M89 90.5H64v-1h25v1Z" class="Vector 33"/>
      <path fill="#8B8B8B" d="M87 2.5h-3v62h-1v1H32v-1h-1v24h57v-13h1v-1h5v-72h-3v1h-4v-1Z" class="Union"/>
      <g class="Group 42">
        <path fill="#393738" d="M13 1.5h17v13H13z" class="Rectangle 89"/>
        <path fill="#646364" d="M14 2.5h15v1H14z" class="Rectangle 90"/>
        <path fill="#646364" d="M14 6.5h15v1H14z" class="Rectangle 92"/>
        <path fill="#646364" d="M14 10.5h15v1H14z" class="Rectangle 94"/>
        <path fill="#A1A09E" d="M14 3.5h15v1H14z" class="Rectangle 91"/>
        <path fill="#A1A09E" d="M14 7.5h15v1H14z" class="Rectangle 93"/>
        <path fill="#A1A09E" d="M14 11.5h15v1H14z" class="Rectangle 95"/>
      </g>
      <g class="Group 43">
        <path fill="#5C5B59" d="M13 14.5h17v8H13z" class="Rectangle 96"/>
        <path fill="#8A8A8A" d="M14 14.5h15v1H14z" class="Rectangle 94"/>
        <path fill="#8A8A8A" d="M14 18.5h15v1H14z" class="Rectangle 97"/>
        <path fill="#BDBBBC" d="M14 15.5h15v1H14z" class="Rectangle 95"/>
        <path fill="#BDBBBC" d="M14 19.5h15v1H14z" class="Rectangle 98"/>
      </g>
      <g class="Group 45">
        <path fill="#5C5B59" d="M13 30.5h17v8H13z" class="Rectangle 96"/>
        <path fill="#8A8A8A" d="M14 30.5h15v1H14z" class="Rectangle 94"/>
        <path fill="#8A8A8A" d="M14 34.5h15v1H14z" class="Rectangle 97"/>
        <path fill="#BDBBBC" d="M14 31.5h15v1H14z" class="Rectangle 95"/>
        <path fill="#BDBBBC" d="M14 35.5h15v1H14z" class="Rectangle 98"/>
      </g>
      <g class="Group 47">
        <path fill="#5C5B59" d="M13 46.5h17v8H13z" class="Rectangle 96"/>
        <path fill="#8A8A8A" d="M14 46.5h15v1H14z" class="Rectangle 94"/>
        <path fill="#8A8A8A" d="M14 50.5h15v1H14z" class="Rectangle 97"/>
        <path fill="#BDBBBC" d="M14 47.5h15v1H14z" class="Rectangle 95"/>
        <path fill="#BDBBBC" d="M14 51.5h15v1H14z" class="Rectangle 98"/>
      </g>
      <g class="Group 49">
        <path fill="#5C5B59" d="M13 62.5h17v8H13z" class="Rectangle 96"/>
        <path fill="#8A8A8A" d="M14 62.5h15v1H14z" class="Rectangle 94"/>
        <path fill="#8A8A8A" d="M14 66.5h15v1H14z" class="Rectangle 97"/>
        <path fill="#BDBBBC" d="M14 63.5h15v1H14z" class="Rectangle 95"/>
        <path fill="#BDBBBC" d="M14 67.5h15v1H14z" class="Rectangle 98"/>
      </g>
      <g class="Group 44">
        <path fill="#5C5B59" d="M13 22.5h17v8H13z" class="Rectangle 96"/>
        <path fill="#8A8A8A" d="M14 22.5h15v1H14z" class="Rectangle 94"/>
        <path fill="#8A8A8A" d="M14 26.5h15v1H14z" class="Rectangle 97"/>
        <path fill="#BDBBBC" d="M14 23.5h15v1H14z" class="Rectangle 95"/>
        <path fill="#BDBBBC" d="M14 27.5h15v1H14z" class="Rectangle 98"/>
      </g>
      <g class="Group 46">
        <path fill="#5C5B59" d="M13 38.5h17v8H13z" class="Rectangle 96"/>
        <path fill="#8A8A8A" d="M14 38.5h15v1H14z" class="Rectangle 94"/>
        <path fill="#8A8A8A" d="M14 42.5h15v1H14z" class="Rectangle 97"/>
        <path fill="#BDBBBC" d="M14 39.5h15v1H14z" class="Rectangle 95"/>
        <path fill="#BDBBBC" d="M14 43.5h15v1H14z" class="Rectangle 98"/>
      </g>
      <g class="Group 48">
        <path fill="#5C5B59" d="M13 54.5h17v8H13z" class="Rectangle 96"/>
        <path fill="#8A8A8A" d="M14 54.5h15v1H14z" class="Rectangle 94"/>
        <path fill="#8A8A8A" d="M14 58.5h15v1H14z" class="Rectangle 97"/>
        <path fill="#BDBBBC" d="M14 55.5h15v1H14z" class="Rectangle 95"/>
        <path fill="#BDBBBC" d="M14 59.5h15v1H14z" class="Rectangle 98"/>
      </g>
      <g class="Group 50">
        <path fill="#5C5B59" d="M13 70.5h17v8H13z" class="Rectangle 96"/>
        <path fill="#8A8A8A" d="M14 70.5h15v1H14z" class="Rectangle 94"/>
        <path fill="#8A8A8A" d="M14 74.5h15v1H14z" class="Rectangle 97"/>
        <path fill="#BDBBBC" d="M14 71.5h15v1H14z" class="Rectangle 95"/>
        <path fill="#BDBBBC" d="M14 75.5h15v1H14z" class="Rectangle 98"/>
      </g>
      <path fill="#8B8B8B" d="M14 78.5h15v11H14z" class="Rectangle 99"/>
      <path fill="url(#a)" d="M32 1.25h51v62.984h-1v1.016H33v-1.016h-1V1.25Z" class="Rectangle 102"/>
      <g class="Group 52">
        <g class="Group 51">
          <path fill="#BDBBBC" d="M40 75.5h1v1h-1z" class="Rectangle 102"/>
          <path fill="#BDBBBC" d="M41 74.5h1v1h-1z" class="Rectangle 103"/>
          <path fill="#BDBBBC" d="M39 74.5h1v1h-1z" class="Rectangle 110"/>
          <path fill="#BDBBBC" d="M38 73.5h1v1h-1z" class="Rectangle 111"/>
          <path fill="#BDBBBC" d="M37 72.5h1v1h-1z" class="Rectangle 112"/>
          <path fill="#BDBBBC" d="M36 71.5h1v1h-1z" class="Rectangle 113"/>
          <path fill="#BDBBBC" d="M35 70.5h1v1h-1z" class="Rectangle 114"/>
          <path fill="#BDBBBC" d="M42 73.5h1v1h-1z" class="Rectangle 104"/>
          <path fill="#BDBBBC" d="M43 72.5h1v1h-1z" class="Rectangle 105"/>
          <path fill="#BDBBBC" d="M44 71.5h1v1h-1z" class="Rectangle 106"/>
          <path fill="#BDBBBC" d="M45 70.5h1v1h-1z" class="Rectangle 107"/>
          <path fill="#BDBBBC" d="M36 69.5h9v1h-9z" class="Rectangle 108"/>
          <path fill="#5C5B59" d="M45 70.5h-9v1h1v1h1v1h1v1h1v1h1v-1h1v-1h1v-1h1v-1h1v-1Z" class="Vector 40"/>
        </g>
      </g>
    </g>
    <g class="Group 68">
      <path fill="#181818" d="M33.815 56.563V53.5h5.25v.875h.875V57h-.875v.875h-3.5v1.75h-1.75v-3.063Zm4.375-.876v-1.312h-2.625V57h2.625v-1.313Zm4.27 0v-.437h2.625v3.5h1.75v.875h-5.25v-.875h1.75v-2.625h-.875v-.438Zm.875-1.75V53.5h1.75v.875h-1.75v-.438Zm5.145 3.5V55.25h1.75v.875h.875v-.875h2.625v.875h-2.625V57h-.875v2.625h-1.75v-2.188Zm6.895-1.75v-.437h4.375v.875h.875v3.5h-5.25v-.875H54.5v-.875h.875V57h3.5v-.875h-3.5v-.438Zm3.5 2.626v-.438H56.25v.875h2.625v-.438Zm2.52-.876V55.25h5.25v.875h.875v3.5h-1.75v-3.5h-2.625v3.5h-1.75v-2.188Zm7.77-1.75v-.437h4.375v.875h.875v3.5h-5.25v-.875h-.875v-.875h.875V57h3.5v-.875h-3.5v-.438Zm3.5 2.626v-.438H70.04v.875h2.625v-.438Zm3.395-2.626v-.437h4.375v.875h-3.5V57h3.5v.875h.875v.875h-.875v.875h-5.25v-.875h4.375v-.875h-3.5V57h-.875v-.875h.875v-.438Z" class="Piranas"/>
      <g class="enemy/red-venus-fire-trap">
        <path fill="#E64434" d="M54 9.5h7.5V11h3v3H66v3h1.5v6H66v3h-1.5v1.5H63V29h-3v1.5h-7.5v-3H60v-3h1.5V23H63v-1.5h1.5V17H63v-1.5h-1.5V14H51v-3h3V9.5ZM51 14v1.5h-1.5V14H51Z" class="red"/>
        <path fill="#4CFF75" d="M58.5 32h-3v9h-3v-1.5H54v-3h-1.5V35H51v-1.5h-4.5V38H48v3h3v1.5h3V44h6v-1.5h3V41h3v-3h1.5v-4.5h-6v3H60V41h-1.5v-9Z" class="green"/>
        <g class="black">
          <path fill="#000" d="M54 8h7.5v1.5H54V8Zm-3 3V9.5h3V11h-3Zm-1.5 1.5V11H51v1.5h-1.5Zm3 7.5h3v1.5H54V23h-3v-1.5h1.5V20Z"/>
          <path fill="#000" fill-rule="evenodd" d="M63 17v-1.5h-1.5V14H51v1.5h-1.5v-3H48v3h-1.5V17H45v3h1.5v1.5h3V23H51v1.5h-1.5V26H48v3h1.5v1.5h3V32H54v3h-1.5v-1.5H51V32h-4.5v1.5H45V38h1.5v3H48v1.5h3V44h3v-1.5h-3V41h-3v-3h-1.5v-3H48v-1.5h3V35h1.5v1.5H54v3h-1.5V38H51v-1.5h-1.5V38H51v1.5h1.5V41h3v-9h3v9h3v-1.5H63V38h1.5v-1.5H63V38h-1.5v1.5H60v-3h1.5V35H63v-1.5h3V35h1.5v3H66v3h-3v1.5h-3V44h3v-1.5h3V41h1.5v-3H69v-4.5h-1.5V32H63v1.5h-1.5V35H60v-4.5h3V29h1.5v-1.5H66V26h1.5v-3H69v-6h-1.5v-3H66v-3h-1.5V9.5h-3V11h3v3H66v3h1.5v6H66v3h-1.5v1.5H63V29h-3v1.5h-7.5V29h3v-1.5h3V26H60v-1.5h1.5V23H63v-1.5h1.5V17H63Zm0 0v4.5h-1.5V23H60v1.5h-1.5V26h-3v1.5h-3V29h-3v-3H51v-1.5h3V23h1.5v-1.5h3V20H60v-1.5h-7.5V20h-6v-1.5H48V17h4.5v-1.5H60V17h3Z" clip-rule="evenodd"/>
        </g>
        <g class="white">
          <path fill="#fff" d="M55.5 11H54v1.5h1.5V11Zm-6 1.5H51V14h-1.5v-1.5Z"/>
          <path fill="#fff" fill-rule="evenodd" d="M52.5 15.5H60V17h3v4.5h-1.5V23H60v1.5h-1.5V26h-3v1.5h-3V29h-3v-3H51v-1.5h3V23h1.5v-1.5h3V20H60v-1.5h-7.5V20h-6v-1.5H48V17h4.5v-1.5Zm6 10.5H60v1.5h-1.5V26Z" clip-rule="evenodd"/>
          <path fill="#fff" d="M46.5 20v3H45v-3h1.5Zm4.5 3v-1.5h1.5V20h3v1.5H54V23h-3Z"/>
          <path fill="#fff" fill-rule="evenodd" d="M49.5 23H48v-1.5h1.5V23Zm0 0H51v1.5h-1.5V23Z" clip-rule="evenodd"/>
          <path fill="#fff" d="M49.5 24.5V26H48v-1.5h1.5ZM60 11h1.5v1.5H60V11Zm6 3h-1.5v1.5H66V14Zm-1.5 6H66v1.5h-1.5V20Zm0 4.5H63V26h1.5v-1.5ZM57 29h-1.5v1.5H57V29Zm-4.5-9h3v1.5h-3V20ZM51 21.5h3V23h-3v-1.5Z"/>
        </g>
      </g>
    </g>
  </g>
  <defs>
    <linearGradient id="a" x1="57.5" x2="57.5" y1="1.25" y2="65.25" class="a" gradientUnits="userSpaceOnUse">
      <stop stop-color="#FD0"/>
      <stop offset="1" stop-color="#C58E00" stop-opacity=".58"/>
    </linearGradient>
  </defs>
</svg>
