<svg xmlns="http://www.w3.org/2000/svg" width="96" height="91" fill="none" viewBox="0 0 96 91">
 <styles>
 .Group77{
  bg: #fff;
  box-shadow: rgba(0, 0, 0, 0.35) 0px 5px 15px;
 }
 </styles>

 
  <g class="Group77">
    <g class="Group 58">
      <path fill="#BDBBBC" d="M13 1.5h82v74h-5v1h-1v13H13v-88Z" class="Rectangle 88" opacity=".5"/>
      <path fill="#A1A09E" d="M4 2.5H2v72h3v1h1v1h1v12h5v-86H8v1H4v-1Z" class="Vector 27"/>
      <path fill="#5C5B59" d="M1 1.5H0v74h1v-74Z" class="Vector 10"/>
      <path fill="#BDBBBC" d="M13 1.5h-1v88h1v-88Z" class="Vector 18"/>
      <path fill="#BDBBBC" d="M2 1.5H1v74h1v-74Z" class="Vector 19"/>
      <path fill="#BDBBBC" d="M5 75.5H2v-1h3v1Z" class="Vector 20"/>
      <path fill="#BDBBBC" d="M6 76.5H5v-1h1v1Z" class="Vector 21"/>
      <path fill="#BDBBBC" d="M12 89.5H7v-1h5v1Z" class="Vector 23"/>
      <path fill="#BDBBBC" d="M7 89.5H6v-13h1v13Z" class="Vector 22"/>
      <path fill="#5C5B59" d="M5 75.5H1v1h4v-1Z" class="Vector 11"/>
      <path fill="#5C5B59" d="M6 76.5H5v13h1v-13Z" class="Vector 12"/>
      <path fill="#5C5B59" d="M14 78.5h-1v11h1v-11Z" class="Vector 38"/>
      <path fill="#5C5B59" d="M30 78.5h-1v11h1v-11Z" class="Vector 39"/>
      <path fill="#5C5B59" d="M64 89.5H6v1h58v-1Z" class="Vector 13"/>
      <path fill="#5C5B59" d="M32 .5h-2v1h2v-1Z" class="Vector 14"/>
      <path fill="#C1AA14" d="M33 .5h-1v1h1v-1Z" class="Vector 34"/>
      <path fill="#C1AA14" d="M83 .5h-1v1h1v-1Z" class="Vector 36"/>
      <path fill="#DEC218" d="M82 .5H33v1h49v-1Z" class="Vector 35"/>
      <path fill="#5C5B59" d="M87 .5h-4v1h4v-1Z" class="Vector 28"/>
      <path fill="#5C5B59" d="M91 1.5h-4v1h4v-1Z" class="Vector 37"/>
      <path fill="#5C5B59" d="M95 .5h-4v1h4v-1Z" class="Vector 29"/>
      <path fill="#5C5B59" d="M96 1.5h-1v74h1v-74Z" class="Vector 30"/>
      <path fill="#5C5B59" d="M4 .5H1v1h3v-1Z" class="Vector 15"/>
      <path fill="#5C5B59" d="M13 .5H8v1h5v-1Z" class="Vector 16"/>
      <path fill="#5C5B59" d="M8 1.5H4v1h4v-1Z" class="Vector 17"/>
      <path fill="#BDBBBC" d="M4 2.5H2v-1h2v1Z" class="Vector 24"/>
      <path fill="#BDBBBC" d="M12 2.5H8v-1h4v1Z" class="Vector 25"/>
      <path fill="#BDBBBC" d="M8 3.5H4v-1h4v1Z" class="Vector 26"/>
      <path fill="#5C5B59" d="M95 76.5h-5v-1h5v1Z" class="Vector 31"/>
      <path fill="#5C5B59" d="M90 89.5h-1v-13h1v13Z" class="Vector 32"/>
      <path fill="#5C5B59" d="M89 90.5H64v-1h25v1Z" class="Vector 33"/>
      <path fill="#8B8B8B" d="M87 2.5h-3v62h-1v1H32v-1h-1v24h57v-13h1v-1h5v-72h-3v1h-4v-1Z" class="Union"/>
      <g class="Group 42">
        <path fill="#393738" d="M13 1.5h17v13H13z" class="Rectangle 89"/>
        <path fill="#646364" d="M14 2.5h15v1H14z" class="Rectangle 90"/>
        <path fill="#646364" d="M14 6.5h15v1H14z" class="Rectangle 92"/>
        <path fill="#646364" d="M14 10.5h15v1H14z" class="Rectangle 94"/>
        <path fill="#A1A09E" d="M14 3.5h15v1H14z" class="Rectangle 91"/>
        <path fill="#A1A09E" d="M14 7.5h15v1H14z" class="Rectangle 93"/>
        <path fill="#A1A09E" d="M14 11.5h15v1H14z" class="Rectangle 95"/>
      </g>
      <g class="Group 43">
        <path fill="#5C5B59" d="M13 14.5h17v8H13z" class="Rectangle 96"/>
        <path fill="#8A8A8A" d="M14 14.5h15v1H14z" class="Rectangle 94"/>
        <path fill="#8A8A8A" d="M14 18.5h15v1H14z" class="Rectangle 97"/>
        <path fill="#BDBBBC" d="M14 15.5h15v1H14z" class="Rectangle 95"/>
        <path fill="#BDBBBC" d="M14 19.5h15v1H14z" class="Rectangle 98"/>
      </g>
      <g class="Group 45">
        <path fill="#5C5B59" d="M13 30.5h17v8H13z" class="Rectangle 96"/>
        <path fill="#8A8A8A" d="M14 30.5h15v1H14z" class="Rectangle 94"/>
        <path fill="#8A8A8A" d="M14 34.5h15v1H14z" class="Rectangle 97"/>
        <path fill="#BDBBBC" d="M14 31.5h15v1H14z" class="Rectangle 95"/>
        <path fill="#BDBBBC" d="M14 35.5h15v1H14z" class="Rectangle 98"/>
      </g>
      <g class="Group 47">
        <path fill="#5C5B59" d="M13 46.5h17v8H13z" class="Rectangle 96"/>
        <path fill="#8A8A8A" d="M14 46.5h15v1H14z" class="Rectangle 94"/>
        <path fill="#8A8A8A" d="M14 50.5h15v1H14z" class="Rectangle 97"/>
        <path fill="#BDBBBC" d="M14 47.5h15v1H14z" class="Rectangle 95"/>
        <path fill="#BDBBBC" d="M14 51.5h15v1H14z" class="Rectangle 98"/>
      </g>
      <g class="Group 49">
        <path fill="#5C5B59" d="M13 62.5h17v8H13z" class="Rectangle 96"/>
        <path fill="#8A8A8A" d="M14 62.5h15v1H14z" class="Rectangle 94"/>
        <path fill="#8A8A8A" d="M14 66.5h15v1H14z" class="Rectangle 97"/>
        <path fill="#BDBBBC" d="M14 63.5h15v1H14z" class="Rectangle 95"/>
        <path fill="#BDBBBC" d="M14 67.5h15v1H14z" class="Rectangle 98"/>
      </g>
      <g class="Group 44">
        <path fill="#5C5B59" d="M13 22.5h17v8H13z" class="Rectangle 96"/>
        <path fill="#8A8A8A" d="M14 22.5h15v1H14z" class="Rectangle 94"/>
        <path fill="#8A8A8A" d="M14 26.5h15v1H14z" class="Rectangle 97"/>
        <path fill="#BDBBBC" d="M14 23.5h15v1H14z" class="Rectangle 95"/>
        <path fill="#BDBBBC" d="M14 27.5h15v1H14z" class="Rectangle 98"/>
      </g>
      <g class="Group 46">
        <path fill="#5C5B59" d="M13 38.5h17v8H13z" class="Rectangle 96"/>
        <path fill="#8A8A8A" d="M14 38.5h15v1H14z" class="Rectangle 94"/>
        <path fill="#8A8A8A" d="M14 42.5h15v1H14z" class="Rectangle 97"/>
        <path fill="#BDBBBC" d="M14 39.5h15v1H14z" class="Rectangle 95"/>
        <path fill="#BDBBBC" d="M14 43.5h15v1H14z" class="Rectangle 98"/>
      </g>
      <g class="Group 48">
        <path fill="#5C5B59" d="M13 54.5h17v8H13z" class="Rectangle 96"/>
        <path fill="#8A8A8A" d="M14 54.5h15v1H14z" class="Rectangle 94"/>
        <path fill="#8A8A8A" d="M14 58.5h15v1H14z" class="Rectangle 97"/>
        <path fill="#BDBBBC" d="M14 55.5h15v1H14z" class="Rectangle 95"/>
        <path fill="#BDBBBC" d="M14 59.5h15v1H14z" class="Rectangle 98"/>
      </g>
      <g class="Group 50">
        <path fill="#5C5B59" d="M13 70.5h17v8H13z" class="Rectangle 96"/>
        <path fill="#8A8A8A" d="M14 70.5h15v1H14z" class="Rectangle 94"/>
        <path fill="#8A8A8A" d="M14 74.5h15v1H14z" class="Rectangle 97"/>
        <path fill="#BDBBBC" d="M14 71.5h15v1H14z" class="Rectangle 95"/>
        <path fill="#BDBBBC" d="M14 75.5h15v1H14z" class="Rectangle 98"/>
      </g>
      <path fill="#8B8B8B" d="M14 78.5h15v11H14z" class="Rectangle 99"/>
      <path fill="url(#a)" d="M32 1.75h51v62.984h-1v1.016H33v-1.016h-1V1.75Z" class="Rectangle 103"/>
      <g class="Group 52">
        <g class="Group 51">
          <path fill="#BDBBBC" d="M40 75.5h1v1h-1z" class="Rectangle 102"/>
          <path fill="#BDBBBC" d="M41 74.5h1v1h-1z" class="Rectangle 103"/>
          <path fill="#BDBBBC" d="M39 74.5h1v1h-1z" class="Rectangle 110"/>
          <path fill="#BDBBBC" d="M38 73.5h1v1h-1z" class="Rectangle 111"/>
          <path fill="#BDBBBC" d="M37 72.5h1v1h-1z" class="Rectangle 112"/>
          <path fill="#BDBBBC" d="M36 71.5h1v1h-1z" class="Rectangle 113"/>
          <path fill="#BDBBBC" d="M35 70.5h1v1h-1z" class="Rectangle 114"/>
          <path fill="#BDBBBC" d="M42 73.5h1v1h-1z" class="Rectangle 104"/>
          <path fill="#BDBBBC" d="M43 72.5h1v1h-1z" class="Rectangle 105"/>
          <path fill="#BDBBBC" d="M44 71.5h1v1h-1z" class="Rectangle 106"/>
          <path fill="#BDBBBC" d="M45 70.5h1v1h-1z" class="Rectangle 107"/>
          <path fill="#BDBBBC" d="M36 69.5h9v1h-9z" class="Rectangle 108"/>
          <path fill="#5C5B59" d="M45 70.5h-9v1h1v1h1v1h1v1h1v1h1v-1h1v-1h1v-1h1v-1h1v-1Z" class="Vector 40"/>
        </g>
      </g>
    </g>
    <g class="Group 69">
      <path fill="#181818" d="M41.71 59.692v-6.125h5.25v.875h.875v2.625h-.875v.875h-3.5v1.75h-1.75Zm1.75-2.625h2.625v-2.625H43.46v2.625Zm6.02 2.625v-.875h-.875v-2.625h.875v-.875h4.375v.875h.875v1.75h-4.375v.875h3.5v.875H49.48Zm.875-2.625h2.625v-.875h-2.625v.875Zm6.02 2.625v-.875H55.5v-.875h.875v-.875h3.5v-.875h-3.5v-.875h4.375v.875h.875v3.5h-5.25Zm.875-.875h2.625v-.875H57.25v.875Zm6.02.875v-.875h-.875v-2.625h.875v-.875h5.25v.875h-4.375v2.625h4.375v.875h-5.25Zm6.02 0v-6.125h1.75v1.75h3.5v.875h.875v3.5h-1.75v-3.5H71.04v3.5h-1.75Z" class="Peach"/>
      <g class="Group 66">
        <g class="Group 59">
          <path fill="#342E34" d="M50.117 42.394h18.986V43.5H50.117z" class="Rectangle 115"/>
          <path fill="#342E34" d="M60.168 34.651h4.467v1.106h-4.467z" class="Rectangle 116"/>
          <path fill="#342E34" d="M60.168 31.334h2.234v1.106h-2.234z" class="Rectangle 117"/>
          <path fill="#342E34" d="M56.818 32.44h2.234v1.106h-2.234z" class="Rectangle 118"/>
          <path fill="#342E34" d="M57.934 33.545h2.234v1.106h-2.234z" class="Rectangle 119"/>
          <path fill="#342E34" d="M51.234 30.227h4.467v1.106h-4.467z" class="Rectangle 120"/>
          <path fill="#342E34" d="M53.467 26.909h5.584v1.106h-5.584z" class="Rectangle 121"/>
          <path fill="#342E34" d="M53.467 23.591h7.818v1.106h-7.818z" class="Rectangle 122"/>
          <path fill="#342E34" d="M63.518 23.591h3.35v1.106h-3.35z" class="Rectangle 123"/>
          <path fill="#342E34" d="M64.635 21.379h3.35v1.106h-3.35z" class="Rectangle 124"/>
          <path fill="#342E34" d="M54.584 16.955h3.35v1.106h-3.35z" class="Rectangle 125"/>
          <path fill="#342E34" d="M61.285 15.848h2.234v1.106h-2.234z" class="Rectangle 126"/>
          <path fill="#342E34" d="M64.635 26.909h2.234v1.106h-2.234z" class="Rectangle 131"/>
          <path fill="#342E34" d="M64.635 33.545h2.234v1.106h-2.234z" class="Rectangle 132"/>
          <path fill="#342E34" d="M63.518 22.485h2.234v1.106h-2.234z" class="Rectangle 133"/>
          <path fill="#342E34" d="M65.752 16.955h2.234v1.106h-2.234z" class="Rectangle 134"/>
          <path fill="#342E34" d="M56.818 9.212h2.234v1.106h-2.234z" class="Rectangle 135"/>
          <path fill="#342E34" d="M54.584 10.318h2.234v1.106h-2.234z" class="Rectangle 136"/>
          <path fill="#342E34" d="M50.117 12.53h3.35v1.106h-3.35z" class="Rectangle 137"/>
          <path fill="#342E34" d="M50.117 15.848h1.117v1.106h-1.117z" class="Rectangle 164"/>
          <path fill="#342E34" d="M51.234 14.742h1.117v1.106h-1.117z" class="Rectangle 165"/>
          <path fill="#342E34" d="M50.117 13.636h1.117v1.106h-1.117z" class="Rectangle 166"/>
          <path fill="#342E34" d="M53.467 11.424h1.117v1.106h-1.117z" class="Rectangle 167"/>
          <path fill="#342E34" d="M57.934 8.106h1.117v1.106h-1.117z" class="Rectangle 168"/>
          <path fill="#342E34" d="M59.051 7h1.117v1.106h-1.117z" class="Rectangle 169"/>
          <path fill="#342E34" d="M60.168 8.106h1.117v1.106h-1.117z" class="Rectangle 170"/>
          <path fill="#342E34" d="M61.285 7h1.117v1.106h-1.117z" class="Rectangle 171"/>
          <path fill="#342E34" d="M62.402 8.106h1.117v1.106h-1.117z" class="Rectangle 172"/>
          <path fill="#342E34" d="M63.518 7h1.117v1.106h-1.117z" class="Rectangle 173"/>
          <path fill="#342E34" d="M64.635 15.848h1.117v1.106h-1.117z" class="Rectangle 174"/>
          <path fill="#342E34" d="M66.869 22.485h1.117v1.106h-1.117z" class="Rectangle 175"/>
          <path fill="#342E34" d="M50.117 19.167h1.117v1.106h-1.117z" class="Rectangle 176"/>
          <path fill="#342E34" d="M50.117 22.485h1.117v1.106h-1.117z" class="Rectangle 177"/>
          <path fill="#342E34" d="M50.117 26.909h1.117v1.106h-1.117z" class="Rectangle 178"/>
          <path fill="#342E34" d="M51.234 28.015h1.117v1.106h-1.117z" class="Rectangle 179"/>
          <path fill="#342E34" d="M50.117 29.121h1.117v1.106h-1.117z" class="Rectangle 180"/>
          <path fill="#342E34" d="M52.35 24.697h1.117v2.212H52.35z" class="Rectangle 181"/>
          <path fill="#342E34" d="M63.518 25.803h1.117v1.106h-1.117z" class="Rectangle 182"/>
          <path fill="#342E34" d="M64.635 28.015h1.117v1.106h-1.117z" class="Rectangle 183"/>
          <path fill="#342E34" d="M65.752 29.121h1.117v1.106h-1.117z" class="Rectangle 184"/>
          <path fill="#342E34" d="M59.051 30.227h1.117v1.106h-1.117z" class="Rectangle 185"/>
          <path fill="#342E34" d="M56.818 30.227h1.117v1.106h-1.117z" class="Rectangle 186"/>
          <path fill="#342E34" d="M55.701 31.334h1.117v1.106h-1.117z" class="Rectangle 187"/>
          <path fill="#342E34" d="M65.752 18.061h1.117v3.318h-1.117z" class="Rectangle 145"/>
          <path fill="#342E34" d="M63.518 16.955h1.117v2.212h-1.117z" class="Rectangle 146"/>
          <path fill="#342E34" d="M67.986 14.742h1.117v2.212h-1.117z" class="Rectangle 147"/>
          <path fill="#342E34" d="M66.869 12.53h1.117v2.212h-1.117z" class="Rectangle 148"/>
          <path fill="#342E34" d="M65.752 10.318h1.117v2.212h-1.117z" class="Rectangle 149"/>
          <path fill="#342E34" d="M64.635 8.106h1.117v2.212h-1.117z" class="Rectangle 150"/>
          <path fill="#342E34" d="M60.168 16.955h1.117v2.212h-1.117z" class="Rectangle 151"/>
          <path fill="#342E34" d="M56.818 18.061h1.117v2.212h-1.117z" class="Rectangle 152"/>
          <path fill="#342E34" d="M54.584 18.061h1.117v2.212h-1.117z" class="Rectangle 153"/>
          <path fill="#342E34" d="M56.818 21.379h1.117v2.212h-1.117z" class="Rectangle 154"/>
          <path fill="#342E34" d="M63.518 29.121h1.117v3.318h-1.117z" class="Rectangle 155"/>
          <path fill="#342E34" d="M66.869 34.651h1.117v3.318h-1.117z" class="Rectangle 156"/>
          <path fill="#342E34" d="M65.752 31.334h1.117v2.212h-1.117z" class="Rectangle 157"/>
          <path fill="#342E34" d="M62.402 32.44h1.117v2.212h-1.117z" class="Rectangle 158"/>
          <path fill="#342E34" d="M57.934 28.015h1.117v2.212h-1.117z" class="Rectangle 159"/>
          <path fill="#342E34" d="M54.584 28.015h1.117v2.212h-1.117z" class="Rectangle 160"/>
          <path fill="#342E34" d="M53.467 31.334h1.117v2.212h-1.117z" class="Rectangle 161"/>
          <path fill="#342E34" d="M52.35 33.545h1.117v2.212H52.35z" class="Rectangle 162"/>
          <path fill="#342E34" d="M51.234 35.758h1.117v3.318h-1.117z" class="Rectangle 163"/>
          <path fill="#342E34" d="M51.234 16.955h1.117v2.212h-1.117z" class="Rectangle 139"/>
          <path fill="#342E34" d="M49 20.273h1.117v2.212H49z" class="Rectangle 140"/>
          <path fill="#342E34" d="M49 23.591h1.117v3.318H49z" class="Rectangle 141"/>
          <path fill="#342E34" d="M50.117 39.076h1.117v3.318h-1.117z" class="Rectangle 142"/>
          <path fill="#342E34" d="M67.986 37.97h1.117v4.424h-1.117z" class="Rectangle 143"/>
          <path fill="#342E34" d="M66.869 24.697h1.117v7.742h-1.117z" class="Rectangle 144"/>
          <path fill="#342E34" d="M59.051 14.742h2.234v1.106h-2.234z" class="Rectangle 127"/>
          <path fill="#342E34" d="M63.518 14.742h2.234v1.106h-2.234z" class="Rectangle 128"/>
          <path fill="#342E34" d="M57.934 15.848h2.234v1.106h-2.234z" class="Rectangle 129"/>
          <path fill="#342E34" d="M59.051 10.318h5.584v1.106h-5.584z" class="Rectangle 130"/>
        </g>
        <g class="Group 60">
          <path fill="#E41664" d="M51.234 41.288h16.752v1.106H51.234z" class="Rectangle 188"/>
          <path fill="#E41664" d="M52.35 36.864h1.117v1.106H52.35z" class="Rectangle 189"/>
          <path fill="#E41664" d="M52.35 35.758h3.35v1.106h-3.35z" class="Rectangle 190"/>
          <path fill="#E41664" d="M53.467 34.651h3.35v1.106h-3.35z" class="Rectangle 191"/>
          <path fill="#E41664" d="M53.467 33.545h4.467v1.106h-4.467z" class="Rectangle 192"/>
          <path fill="#E41664" d="M54.584 32.44h2.234v1.106h-2.234z" class="Rectangle 193"/>
          <path fill="#E41664" d="M54.584 31.333h1.117v1.106h-1.117z" class="Rectangle 194"/>
          <path fill="#E41664" d="M64.635 34.651h2.234v1.106h-2.234z" class="Rectangle 195"/>
          <path fill="#E41664" d="M65.752 35.758h1.117v1.106h-1.117z" class="Rectangle 196"/>
          <path fill="#E41664" d="M57.934 25.803h1.117v1.106h-1.117z" class="Rectangle 197"/>
          <path fill="#E41664" d="M61.285 23.591h2.234v1.106h-2.234z" class="Rectangle 198"/>
          <path fill="#E41664" d="M61.285 21.379h2.234v1.106h-2.234z" class="Rectangle 199"/>
          <path fill="#E41664" d="M61.285 9.212h1.117v1.106h-1.117z" class="Rectangle 200"/>
        </g>
        <g class="Group 61">
          <path fill="#F496A4" d="M51.234 39.076h16.752v2.212H51.234z" class="Rectangle 201"/>
          <path fill="#F496A4" d="M52.35 37.97h15.635v1.106H52.35z" class="Rectangle 202"/>
          <path fill="#F496A4" d="M53.467 36.864h13.402v1.106H53.467z" class="Rectangle 203"/>
          <path fill="#F496A4" d="M55.701 35.758h10.051v1.106H55.701z" class="Rectangle 204"/>
          <path fill="#F496A4" d="M56.818 34.652h3.35v1.106h-3.35z" class="Rectangle 205"/>
          <path fill="#F496A4" d="M53.467 24.697h13.402v1.106H53.467z" class="Rectangle 206"/>
          <path fill="#F496A4" d="M53.467 25.803h4.467v1.106h-4.467z" class="Rectangle 207"/>
          <path fill="#F496A4" d="M59.051 25.803h4.467v1.106h-4.467z" class="Rectangle 208"/>
          <path fill="#F496A4" d="M64.635 25.803h2.234v1.106h-2.234z" class="Rectangle 209"/>
          <path fill="#F496A4" d="M59.051 26.909h5.584v2.212h-5.584z" class="Rectangle 210"/>
          <path fill="#F496A4" d="M59.051 29.121h4.467v1.106h-4.467z" class="Rectangle 211"/>
          <path fill="#F496A4" d="M60.168 30.227h3.35v1.106h-3.35z" class="Rectangle 212"/>
          <path fill="#F496A4" d="M62.402 31.334h1.117v1.106h-1.117z" class="Rectangle 213"/>
        </g>
        <g class="Group 62">
          <path fill="#FCDE04" d="M61.285 25.803h1.117v1.106h-1.117z" class="Rectangle 214"/>
          <path fill="#FCDE04" d="M61.285 29.121h1.117v1.106h-1.117z" class="Rectangle 217"/>
          <path fill="#FCDE04" d="M65.752 22.485h1.117v1.106h-1.117z" class="Rectangle 218"/>
          <path fill="#FCDE04" d="M51.234 29.121h3.35v1.106h-3.35z" class="Rectangle 219"/>
          <path fill="#FCDE04" d="M52.35 28.015h2.234v1.106H52.35z" class="Rectangle 220"/>
          <path fill="#FCDE04" d="M51.234 26.909h2.234v1.106h-2.234z" class="Rectangle 221"/>
          <path fill="#FCDE04" d="M50.117 23.591h2.234v3.318h-2.234z" class="Rectangle 222"/>
          <path fill="#FCDE04" d="M52.35 23.591h1.117v1.106H52.35z" class="Rectangle 223"/>
          <path fill="#FCDE04" d="M65.752 14.743h2.234v2.212h-2.234z" class="Rectangle 224"/>
          <path fill="#FCDE04" d="M51.234 21.379h5.584v2.212h-5.584z" class="Rectangle 225"/>
          <path fill="#FCDE04" d="M50.117 20.273h1.117v2.212h-1.117z" class="Rectangle 226"/>
          <path fill="#FCDE04" d="M51.234 19.167h1.117v2.212h-1.117z" class="Rectangle 227"/>
          <path fill="#FCDE04" d="M54.584 20.273h1.117v1.106h-1.117z" class="Rectangle 228"/>
          <path fill="#FCDE04" d="M51.234 15.848h1.117v1.106h-1.117z" class="Rectangle 230"/>
          <path fill="#FCDE04" d="M51.234 13.636h1.117v1.106h-1.117z" class="Rectangle 231"/>
          <path fill="#FCDE04" d="M59.051 8.106h1.117v1.106h-1.117z" class="Rectangle 232"/>
          <path fill="#FCDE04" d="M60.168 9.212h1.117v1.106h-1.117z" class="Rectangle 233"/>
          <path fill="#FCDE04" d="M61.285 8.106h1.117v1.106h-1.117z" class="Rectangle 234"/>
          <path fill="#FCDE04" d="M62.402 9.212h1.117v1.106h-1.117z" class="Rectangle 235"/>
          <path fill="#FCDE04" d="M63.518 8.106h1.117v1.106h-1.117z" class="Rectangle 236"/>
          <path fill="#FCDE04" d="M64.635 10.318h1.117v1.106h-1.117z" class="Rectangle 237"/>
          <path fill="#FCDE04" d="M56.818 10.318h2.234v1.106h-2.234z" class="Rectangle 238"/>
          <path fill="#FCDE04" d="M53.467 12.53h1.117v1.106h-1.117z" class="Rectangle 239"/>
          <path fill="#FCDE04" d="M57.934 14.743h1.117v1.106h-1.117z" class="Rectangle 243"/>
          <path fill="#FCDE04" d="M54.584 11.424h11.168v3.318H54.584z" class="Rectangle 244"/>
          <path fill="#FCDE04" d="M61.285 14.743h2.234v1.106h-2.234z" class="Rectangle 240"/>
          <path fill="#FCDE04" d="M65.752 12.53h1.117v2.212h-1.117z" class="Rectangle 241"/>
          <path fill="#FCDE04" d="M54.584 14.743h3.35v2.212h-3.35z" class="Rectangle 242"/>
          <path fill="#FCDE04" d="M52.35 13.636h2.234v7.742H52.35z" class="Rectangle 229"/>
          <path fill="#FCDE04" d="M62.402 26.909h1.117v2.212h-1.117z" class="Rectangle 215"/>
          <path fill="#FCDE04" d="M60.168 26.909h1.117v2.212h-1.117z" class="Rectangle 216"/>
        </g>
        <g class="Group 63">
          <path fill="#147AE4" d="M59.051 9.212h1.117v1.106h-1.117z" class="Rectangle 245"/>
          <path fill="#147AE4" d="M63.518 9.212h1.117v1.106h-1.117z" class="Rectangle 246"/>
          <path fill="#147AE4" d="M55.701 20.273h1.117v1.106h-1.117z" class="Rectangle 247"/>
          <path fill="#147AE4" d="M61.285 26.909h1.117v2.212h-1.117z" class="Rectangle 248"/>
        </g>
        <g class="Group 64">
          <path fill="#E4B694" d="M55.701 18.061h1.117v2.212h-1.117z" class="Rectangle 249"/>
          <path fill="#E4B694" d="M64.635 16.955h1.117v4.424h-1.117z" class="Rectangle 250"/>
          <path fill="#E4B694" d="M63.518 15.848h1.117v1.106h-1.117z" class="Rectangle 251"/>
          <path fill="#E4B694" d="M60.168 15.848h1.117v1.106h-1.117z" class="Rectangle 252"/>
          <path fill="#E4B694" d="M65.752 28.015h1.117v1.106h-1.117z" class="Rectangle 253"/>
          <path fill="#E4B694" d="M55.701 28.015h2.234v2.212h-2.234z" class="Rectangle 254"/>
          <path fill="#E4B694" d="M55.701 30.227h1.117v1.106h-1.117z" class="Rectangle 255"/>
          <path fill="#E4B694" d="M56.818 20.273h1.117v1.106h-1.117z" class="Rectangle 256"/>
          <path fill="#E4B694" d="M57.934 16.955h2.234v6.636h-2.234z" class="Rectangle 257"/>
          <path fill="#E4B694" d="M61.285 16.955h2.234v4.424h-2.234z" class="Rectangle 258"/>
          <path fill="#E4B694" d="M60.168 19.167h1.117v4.424h-1.117z" class="Rectangle 259"/>
          <path fill="#E4B694" d="M63.518 19.167h1.117v3.318h-1.117z" class="Rectangle 260"/>
          <path fill="#E4B694" d="M61.285 22.485h2.234v1.106h-2.234z" class="Rectangle 261"/>
        </g>
        <g class="Group 65">
          <path fill="#FCFEFC" d="M56.818 31.333h3.35v1.106h-3.35z" class="Rectangle 262"/>
          <path fill="#FCFEFC" d="M59.051 32.44h3.35v1.106h-3.35z" class="Rectangle 263"/>
          <path fill="#FCFEFC" d="M60.168 33.545h2.234v1.106h-2.234z" class="Rectangle 264"/>
          <path fill="#FCFEFC" d="M57.934 30.227h1.117v1.106h-1.117z" class="Rectangle 265"/>
          <path fill="#FCFEFC" d="M64.635 29.121h1.117v4.424h-1.117z" class="Rectangle 266"/>
          <path fill="#FCFEFC" d="M65.752 30.227h1.117v1.106h-1.117z" class="Rectangle 267"/>
          <path fill="#FCFEFC" d="M63.518 32.44h1.117v2.212h-1.117z" class="Rectangle 268"/>
        </g>
      </g>
    </g>
  </g>
  <defs>
    <linearGradient id="a" x1="57.5" x2="57.5" y1="1.75" y2="65.75" class="a" gradientUnits="userSpaceOnUse">
      <stop stop-color="#FD0"/>
      <stop offset="1" stop-color="#C58E00" stop-opacity=".58"/>
    </linearGradient>
  </defs>
</svg>
