<svg width="96" height="90" viewBox="0 0 96 90" fill="none" xmlns="http://www.w3.org/2000/svg">
<path opacity="0.5" d="M13 1H95V75H90V76H89V89H13V1Z" fill="#BDBBBC"/>
<path d="M4 2H2V74H5V75H6V76H7V88H12V2H8V3H4V2Z" fill="#A1A09E"/>
<path d="M1 1H0V75H1V1Z" fill="#5C5B59"/>
<path d="M13 1H12V89H13V1Z" fill="#BDBBBC"/>
<path d="M2 1H1V75H2V1Z" fill="#BDBBBC"/>
<path d="M5 75H2V74H5V75Z" fill="#BDBBBC"/>
<path d="M6 76H5V75H6V76Z" fill="#BDBBBC"/>
<path d="M12 89H7V88H12V89Z" fill="#BDBBBC"/>
<path d="M7 89H6V76H7V89Z" fill="#BDBBBC"/>
<path d="M5 75H1V76H5V75Z" fill="#5C5B59"/>
<path d="M6 76H5V89H6V76Z" fill="#5C5B59"/>
<path d="M14 78H13V89H14V78Z" fill="#5C5B59"/>
<path d="M30 78H29V89H30V78Z" fill="#5C5B59"/>
<path d="M64 89H6V90H64V89Z" fill="#5C5B59"/>
<path d="M32 0H30V1H32V0Z" fill="#5C5B59"/>
<path d="M33 0H32V1H33V0Z" fill="#C1AA14"/>
<path d="M83 0H82V1H83V0Z" fill="#C1AA14"/>
<path d="M82 0H33V1H82V0Z" fill="#DEC218"/>
<path d="M87 0H83V1H87V0Z" fill="#5C5B59"/>
<path d="M91 1H87V2H91V1Z" fill="#5C5B59"/>
<path d="M95 0H91V1H95V0Z" fill="#5C5B59"/>
<path d="M96 1H95V75H96V1Z" fill="#5C5B59"/>
<path d="M4 0H1V1H4V0Z" fill="#5C5B59"/>
<path d="M13 0H8V1H13V0Z" fill="#5C5B59"/>
<path d="M8 1H4V2H8V1Z" fill="#5C5B59"/>
<path d="M4 2H2V1H4V2Z" fill="#BDBBBC"/>
<path d="M12 2H8V1H12V2Z" fill="#BDBBBC"/>
<path d="M8 3H4V2H8V3Z" fill="#BDBBBC"/>
<path d="M95 76H90V75H95V76Z" fill="#5C5B59"/>
<path d="M90 89H89V76H90V89Z" fill="#5C5B59"/>
<path d="M89 90H64V89H89V90Z" fill="#5C5B59"/>
<path d="M87 2H84V64H83V65H32V64H31V88H88V75H89V74H94V2H91V3H87V2Z" fill="#8B8B8B"/>
<rect x="13" y="1" width="17" height="13" fill="#393738"/>
<rect x="14" y="2" width="15" height="1" fill="#646364"/>
<rect x="14" y="6" width="15" height="1" fill="#646364"/>
<rect x="14" y="10" width="15" height="1" fill="#646364"/>
<rect x="14" y="3" width="15" height="1" fill="#A1A09E"/>
<rect x="14" y="7" width="15" height="1" fill="#A1A09E"/>
<rect x="14" y="11" width="15" height="1" fill="#A1A09E"/>
<rect x="13" y="14" width="17" height="8" fill="#5C5B59"/>
<rect x="14" y="14" width="15" height="1" fill="#8A8A8A"/>
<rect x="14" y="18" width="15" height="1" fill="#8A8A8A"/>
<rect x="14" y="15" width="15" height="1" fill="#BDBBBC"/>
<rect x="14" y="19" width="15" height="1" fill="#BDBBBC"/>
<rect x="13" y="30" width="17" height="8" fill="#5C5B59"/>
<rect x="14" y="30" width="15" height="1" fill="#8A8A8A"/>
<rect x="14" y="34" width="15" height="1" fill="#8A8A8A"/>
<rect x="14" y="31" width="15" height="1" fill="#BDBBBC"/>
<rect x="14" y="35" width="15" height="1" fill="#BDBBBC"/>
<rect x="13" y="46" width="17" height="8" fill="#5C5B59"/>
<rect x="14" y="46" width="15" height="1" fill="#8A8A8A"/>
<rect x="14" y="50" width="15" height="1" fill="#8A8A8A"/>
<rect x="14" y="47" width="15" height="1" fill="#BDBBBC"/>
<rect x="14" y="51" width="15" height="1" fill="#BDBBBC"/>
<rect x="13" y="62" width="17" height="8" fill="#5C5B59"/>
<rect x="14" y="62" width="15" height="1" fill="#8A8A8A"/>
<rect x="14" y="66" width="15" height="1" fill="#8A8A8A"/>
<rect x="14" y="63" width="15" height="1" fill="#BDBBBC"/>
<rect x="14" y="67" width="15" height="1" fill="#BDBBBC"/>
<rect x="13" y="22" width="17" height="8" fill="#5C5B59"/>
<rect x="14" y="22" width="15" height="1" fill="#8A8A8A"/>
<rect x="14" y="26" width="15" height="1" fill="#8A8A8A"/>
<rect x="14" y="23" width="15" height="1" fill="#BDBBBC"/>
<rect x="14" y="27" width="15" height="1" fill="#BDBBBC"/>
<rect x="13" y="38" width="17" height="8" fill="#5C5B59"/>
<rect x="14" y="38" width="15" height="1" fill="#8A8A8A"/>
<rect x="14" y="42" width="15" height="1" fill="#8A8A8A"/>
<rect x="14" y="39" width="15" height="1" fill="#BDBBBC"/>
<rect x="14" y="43" width="15" height="1" fill="#BDBBBC"/>
<rect x="13" y="54" width="17" height="8" fill="#5C5B59"/>
<rect x="14" y="54" width="15" height="1" fill="#8A8A8A"/>
<rect x="14" y="58" width="15" height="1" fill="#8A8A8A"/>
<rect x="14" y="55" width="15" height="1" fill="#BDBBBC"/>
<rect x="14" y="59" width="15" height="1" fill="#BDBBBC"/>
<rect x="13" y="70" width="17" height="8" fill="#5C5B59"/>
<rect x="14" y="70" width="15" height="1" fill="#8A8A8A"/>
<rect x="14" y="74" width="15" height="1" fill="#8A8A8A"/>
<rect x="14" y="71" width="15" height="1" fill="#BDBBBC"/>
<rect x="14" y="75" width="15" height="1" fill="#BDBBBC"/>
<rect x="14" y="78" width="15" height="11" fill="#8B8B8B"/>
<path d="M32 1H83V63H82V64H33V63H32V1Z" fill="#C1AA14"/>
<path d="M33 1H82V62.0159H81.0392V63H33.9608V62.0159H33V1Z" fill="#FCF751"/>
<rect x="40" y="75" width="1" height="1" fill="#BDBBBC"/>
<rect x="41" y="74" width="1" height="1" fill="#BDBBBC"/>
<rect x="39" y="74" width="1" height="1" fill="#BDBBBC"/>
<rect x="38" y="73" width="1" height="1" fill="#BDBBBC"/>
<rect x="37" y="72" width="1" height="1" fill="#BDBBBC"/>
<rect x="36" y="71" width="1" height="1" fill="#BDBBBC"/>
<rect x="35" y="70" width="1" height="1" fill="#BDBBBC"/>
<rect x="42" y="73" width="1" height="1" fill="#BDBBBC"/>
<rect x="43" y="72" width="1" height="1" fill="#BDBBBC"/>
<rect x="44" y="71" width="1" height="1" fill="#BDBBBC"/>
<rect x="45" y="70" width="1" height="1" fill="#BDBBBC"/>
<rect x="36" y="69" width="9" height="1" fill="#BDBBBC"/>
<path d="M45 70H36V71H37V72H38V73H39V74H40V75H41V74H42V73H43V72H44V71H45V70Z" fill="#5C5B59"/>
<path d="M38.0125 57.125V56.25H37.1375V55.375H36.2625V52.75H37.1375V51.875H38.0125V51H42.3875V51.875H38.8875V52.75H38.0125V55.375H38.8875V56.25H40.6375V54.5H39.7625V53.625H42.3875V57.125H38.0125ZM44.0325 57.125V56.25H43.1575V53.625H44.0325V52.75H48.4075V53.625H49.2825V56.25H48.4075V57.125H44.0325ZM44.9075 56.25H47.5325V53.625H44.9075V56.25ZM50.9275 57.125V56.25H50.0525V53.625H50.9275V52.75H55.3025V53.625H56.1775V56.25H55.3025V57.125H50.9275ZM51.8025 56.25H54.4275V53.625H51.8025V56.25ZM56.9475 57.125V52.75H62.1975V53.625H63.0725V57.125H61.3225V53.625H60.4475V57.125H58.6975V53.625H57.8225V57.125H56.9475ZM64.7175 57.125V56.25H63.8425V51H65.5925V52.75H69.0925V53.625H69.9675V56.25H69.0925V57.125H64.7175ZM65.5925 56.25H68.2175V53.625H65.5925V56.25ZM71.6125 57.125V56.25H70.7375V55.375H71.6125V54.5H75.1125V53.625H71.6125V52.75H75.9875V53.625H76.8625V57.125H71.6125ZM72.4875 56.25H75.1125V55.375H72.4875V56.25Z" fill="#181818"/>
<path d="M55 32H59V35H61V36H64V41H61V45H59V46H55V45H53V41H50V36H53V35H55V32Z" fill="#FFAE4C"/>
<path d="M51 45H50V46H51V45Z" fill="#FFAE4C"/>
<path d="M63 44H64V45H63V44Z" fill="#FFAE4C"/>
<path d="M55 31H59V32H55V31Z" fill="black"/>
<path d="M56 36V38H55V36H56Z" fill="black"/>
<path d="M53 39H61V40H53V39Z" fill="black"/>
<path fill-rule="evenodd" clip-rule="evenodd" d="M56 35V33H55V32H53V33H52V34H53V35H52V36H50V37H49V40H50V41H51V42H52V44H50V45H49V47H55V45H54V44H53V43H54V42H59V43H60V44H59V46H65V44H64V43H60V42H63V41H64V40H65V37H64V36H62V35H61V34H62V33H61V32H59V33H58V35H56ZM56 36V35H55V34H54V35H53V36H52V37H50V40H51V41H63V40H64V37H62V36H61V35H60V34H59V35H58V36H56ZM58 36H59V38H58V36ZM64 44V45H63V44H64Z" fill="black"/>
<path d="M50 45H51V46H50V45Z" fill="black"/>
<path d="M54 34H55V35H56V36H55V38H54V34Z" fill="#FFBAAA"/>
<path d="M59 34H60V38H59V36H58V35H59V34Z" fill="#FFBAAA"/>
<path d="M62 39H61V41H62V39Z" fill="#FFBAAA"/>
<path d="M52 39H53V41H52V39Z" fill="#FFBAAA"/>
<path d="M54 42V44H55V45H59V44H60V43H59V42H54Z" fill="#FFBAAA"/>
</svg>
