<svg xmlns="http://www.w3.org/2000/svg" width="100%" height="100%" fill="none" viewBox="0 0 14 16">
                <path fill="#000" d="M10 0H4v1H2v1H1v2H0v8h1v2h1v1h2v1h6v-1h2v-1h1v-2h1V4h-1V2h-1V1h-2V0Z"/>
                <path fill="#FCB5A8" d="M8 1H5v1H3v1H2v2H1v6h1v2h1v1h2v1h3v-1h2v-1h1v-2h1V5h-1V3h-1V2H8V1Z"/>
                <path fill="#FC8E2E" d="M5 2h5v1h1v2h1v6h-1v3h-1v1H5v-1H4v-1H3v-2H2V5h1V3h2V2Z"/>
                <path fill="#000" d="M9 3H8v9H5v1h4V3Zm1 11v1H8v-1h2Zm0 0v-1h2v1h-2Z"/>
                <path fill="#FCB5A8" d="M5 3v9h1V4h2V3H5Z"/>
              </svg>