<svg xmlns="http://www.w3.org/2000/svg" width="96" height="48" fill="none" viewBox="0 0 96 48">
  <path fill="#FCB5A8" d="M48 0h-1v1h1V0Zm0 2h-3v1h3V2Zm-5 2h5v1h-5V4Zm5 2h-7v1h7V6Zm-9 2h9v1h-9V8Zm9 2H37v1h11v-1Zm-13 2h13v1H35v-1Zm13 2H33v1h15v-1Zm-17 2h17v1H31v-1Zm17 2H29v1h19v-1Zm-21 2h21v1H27v-1Zm21 2H25v1h23v-1Zm-25 2h25v1H23v-1Zm25 2H21v1h27v-1Zm-29 2h29v1H19v-1Zm29 2H17v1h31v-1Zm-33 2h33v1H15v-1Zm33 2H13v1h35v-1Zm-37 2h37v1H11v-1Zm37 2H9v1h39v-1ZM7 40h41v1H7v-1Zm41 2H5v1h43v-1ZM3 44h45v1H3v-1Zm45 2H1v1h47v-1Z"/>
  <path fill="#C24108" d="M48 0h1v1h-1V0Zm0 2h3v1h-3V2Zm5 2h-5v1h5V4Zm-5 2h7v1h-7V6Zm9 2h-9v1h9V8Zm-9 2h11v1H48v-1Zm13 2H48v1h13v-1Zm-13 2h15v1H48v-1Zm17 2H48v1h17v-1Zm-17 2h19v1H48v-1Zm21 2H48v1h21v-1Zm-21 2h23v1H48v-1Zm25 2H48v1h25v-1Zm-25 2h27v1H48v-1Zm29 2H48v1h29v-1Zm-29 2h31v1H48v-1Zm0 2h33v1H48v-1Zm35 2H48v1h35v-1Zm-35 2h37v1H48v-1Zm39 2H48v1h39v-1Zm-39 2h41v1H48v-1Zm43 2H48v1h43v-1Zm-43 2h45v1H48v-1Zm47 2H48v1h47v-1Z"/>
  <path fill="#FC8E2E" d="M46 1v1h4V1h-4Zm-2 2v1h8V3h-8Zm-2 2h12v1H42V5Zm-2 2v1h16V7H40Zm-2 2h20v1H38V9Zm-2 2v1h24v-1H36Zm-2 2h28v1H34v-1Zm-2 2v1h32v-1H32Zm-2 2h36v1H30v-1Zm-2 2v1h40v-1H28Zm-2 2h44v1H26v-1Zm-2 2v1h48v-1H24Zm-2 2h52v1H22v-1Zm-2 2v1h56v-1H20Zm-2 2h60v1H18v-1Zm-2 2v1h64v-1H16Zm-2 3v-1h68v1H14Zm-2 2v-1h72v1H12Zm74 2v-1H10v1h76ZM8 40v-1h80v1H8Zm82 2v-1H6v1h84ZM4 44v-1h88v1H4Zm90 2v-1H2v1h92ZM0 48v-1h96v1H0Z"/>
</svg>
