<svg xmlns="http://www.w3.org/2000/svg" width="64" height="32" fill="none" viewBox="0 0 64 32">
  <path fill="#FCB5A8" d="M32 0h-1v1h1V0Zm0 2h-3v1h3V2Zm-5 2h5v1h-5V4Zm5 2h-7v1h7V6Zm-9 2h9v1h-9V8Zm9 2H21v1h11v-1Zm-13 2h13v1H19v-1Zm13 2H17v1h15v-1Zm-17 2h17v1H15v-1Zm17 2H13v1h19v-1Zm-21 2h21v1H11v-1Zm21 2H9v1h23v-1ZM7 24h25v1H7v-1Zm25 2H5v1h27v-1ZM3 28h29v1H3v-1Zm29 2H1v1h31v-1Z"/>
  <path fill="#C24108" d="M32 0h1v1h-1V0Zm0 2h3v1h-3V2Zm5 2h-5v1h5V4Zm-5 2h7v1h-7V6Zm9 2h-9v1h9V8Zm-9 2h11v1H32v-1Zm13 2H32v1h13v-1Zm-13 2h15v1H32v-1Zm17 2H32v1h17v-1Zm-17 2h19v1H32v-1Zm21 2H32v1h21v-1Zm-21 2h23v1H32v-1Zm25 2H32v1h25v-1Zm-25 2h27v1H32v-1Zm29 2H32v1h29v-1Zm-29 2h31v1H32v-1Z"/>
  <path fill="#FC8E2E" d="M30 1h4v1h-4V1Zm-2 3V3h8v1h-8Zm-2 1v1h12V5H26Zm-2 3V7h16v1H24Zm-2 1v1h20V9H22Zm-2 3v-1h24v1H20Zm-2 1v1h28v-1H18Zm-2 3v-1h32v1H16Zm-2 1v1h36v-1H14Zm-2 3v-1h40v1H12Zm-2 1v1h44v-1H10Zm-2 3v-1h48v1H8Zm-2 1v1h52v-1H6Zm-2 3v-1h56v1H4Zm-2 1v1h60v-1H2Zm-2 3v-1h64v1H0Z"/>
</svg>
