<svg xmlns="http://www.w3.org/2000/svg" width="100%"  height="100%" fill="none" viewBox="0 0 100% 100%">
<style>
    .Vector2 {
      transform: translate(0, 45.5vh);
      box-shadow: 12px 12px 2px 1px rgba(0, 0, 255, .2);
    } 
    .Vector{
       transform: translate(0, 1.5vh);
       box-shadow: 12px 12px 2px 1px rgba(0, 0, 255, .2);
    } 

    @media screen and (max-height: 580px) {
    .Vector2 {
        transform: translate(0, 42vh);
        box-shadow: 12px 12px 2px 1px rgba(0, 0, 255, .2);
      } 
    }
    </style>
 
 
  <g transform="scale(2 2)" class="Group 80"  >
    <g  class="Vector">
      <path fill="#aaa" d="M5 0H1v1H0v4h1v1h4V5h1V1H5V0Z"/>
      <path fill="#fff" d="M4 1H2v1H1v2h1v1h2V4h1V2H4V1Z"/>
      <path fill="#aaa" d="M2 3h1v1H2V3ZM3 2h1v1H3V2Z"/>
    </g>
    <g class="Vector2">
      <path fill="#aaa" d="M5 17H1v1H0v4h1v1h4v-1h1v-4H5v-1Z"/>
      <path fill="#fff" d="M4 18H2v1H1v2h1v1h2v-1h1v-2H4v-1Z"/>
      <path fill="#aaa" d="M2 20h1v1H2v-1ZM3 19h1v1H3v-1Z"/>
    </g>
    
  </g>
</svg>
