<svg xmlns="http://www.w3.org/2000/svg" width="160" height="174" fill="none" viewBox="0 0 160 174">
  <g class="Group 2">
    <g class="Frame 1">
      <g class="Vector">
        <path fill="#000" d="M0 106.666h13.333V120H0v-13.334Z"/>
        <path fill="#fff" d="M13.333 80h13.334v13.333H13.333V80ZM80 80h13.333v13.333H80V80Zm13.333 40h13.334v13.333H93.333V120Zm13.334-13.334H120V120h-13.333v-13.334Zm-13.334 0h13.334V120H93.333v-13.334ZM120 93.334h13.333v13.333L120 106.666V93.334Zm-13.333 0H120v13.332h-13.333V93.334Zm-13.334-.001h13.334v13.333H93.333V93.333ZM120 80h13.333v13.334H120V80Zm-13.333 0H120v13.334h-13.333V80Z"/>
        <path fill="#fff" d="M93.333 80h13.334v13.334H93.333V80Zm13.334-13.334H120V80h-13.333V66.666Zm-13.334 0h13.334V80H93.333V66.666Zm0-13.332h13.334v13.332H93.333V53.334ZM80 40h13.333v13.334H80V40Z"/>
        <path fill="#fff" d="M80 53.333h13.333v13.334H80V53.333Zm0 13.334h13.333V80H80V66.667Zm0 66.667 13.333-.001v13.334H80v-13.333Z"/>
        <path fill="#fff" d="M80 120h13.333v13.333L80 133.334V120Zm0-13.334h13.333V120H80v-13.334Zm0-13.333h13.333v13.333H80V93.333Z"/>
        <path fill="#A9A7A7" d="M80 26.666h13.333V40H80V26.666Zm-13.333 40H80V80H66.667V66.666Zm-13.334 0h13.334V80H53.333V66.666Zm-13.333 0h13.333V80H40V66.666Zm-13.333 0H40V80H26.667V66.666Zm-13.334 0h13.334V80H13.333V66.666Zm120 13.334h13.334v13.333h-13.334V80ZM120 66.666h13.333V80H120V66.666Zm-13.333-13.332H120v13.332h-13.333V53.334ZM93.333 40h13.334v13.334H93.333V40Z"/>
        <path fill="#fff" d="M66.667 93.334H80v13.332l-13.333.001V93.333Zm0-13.334H80v13.333H66.667V80ZM53.333 93.334h13.334v13.333H53.333V93.333Z"/>
        <path fill="#fff" d="M53.333 80h13.334v13.334H53.333V80ZM40 93.334h13.333v13.333H40V93.333Z"/>
        <path fill="#fff" d="M40 80h13.333v13.334H40V80ZM26.667 93.333H40v13.334H26.667V93.333ZM13.333 80h13.334v13.333H13.333V80Z"/>
        <path fill="#fff" d="M26.667 80H40v13.334H26.667V80ZM13.333 93.333h13.334v13.334l-13.334-.001V93.333Z"/>
        <path fill="#000" d="M146.667 80H160v13.333h-13.333V80Zm-13.334-13.334h13.334V80h-13.334V66.666Zm0 26.668h13.334v13.333h-13.334V93.333ZM120 106.666l13.333.001V120H120v-13.334Zm0-53.332h13.333v13.332H120V53.334ZM106.667 40H120v13.334h-13.333V40Zm0 80H120v13.333h-13.333V120ZM93.333 26.666h13.334V40H93.333V26.666Zm0 106.667h13.334v13.334H93.333v-13.334ZM80 13.334h13.333v13.332H80V13.334Zm0 133.333h13.333V160H80v-13.333ZM66.667 0H80v13.334H66.667V0Z"/>
        <path fill="#000" d="M66.667 13.333H80v13.333H66.667V13.334Zm0 13.334H80V40H66.667V26.667Zm0 13.333H80v13.333H66.667V40Zm0 120H80v13.333H66.667V160Zm0-13.334 13.333.001V160H66.667v-13.334Z"/>
        <path fill="#000" d="M66.667 133.334H80v13.333l-13.333-.001v-13.332Zm0-13.334H80v13.334H66.667V120Zm0-66.667H80v13.334H66.667V53.332Zm0 53.334L80 106.666V120H66.667v-13.333ZM53.333 53.334h13.334v13.332H53.333V53.334Zm-13.333 0h13.333v13.332H40V53.334Zm-13.333 0H40v13.332H26.667V53.334Zm-13.334 0h13.334v13.332H13.333V53.334Zm40 53.333h13.334V120H53.333v-13.333Zm-13.333 0h13.333V120H40v-13.333Zm-13.333 0H40V120H26.667v-13.333Zm-13.334-.001 13.334.001V120H13.333v-13.334ZM0 66.666h13.333V80H0V66.666Zm0-13.332h13.333v13.332H0V53.334Zm0 40h13.333v13.332H0V93.334ZM0 80h13.333v13.333H0V80Z"/>
      </g>
      <path fill="#000" d="M59.25 87.625V87h5v1.25h1.25v1.25H63v-1.25h-2.5v2.5h5V92h1.25v2.5H65.5v1.25h-6.25V94.5H58v-1.25h2.5v1.25h3.75V92h-5v-1.25H58v-2.5h1.25v-.625Zm12.5.625V87h2.5v2.5h2.5v1.25h-2.5v5h-2.5v-5h-2.5V89.5h2.5v-1.25Zm7.5 1.875V89.5h6.25v1.25h1.25v5h-7.5V94.5H78v-1.25h1.25V92h5v-1.25h-5v-.625Zm5 3.75v-.625H80.5v1.25h3.75v-.625Zm5-1.25V89.5h2.5v1.25H93V89.5h3.75v1.25H93V92h-1.25v3.75h-2.5v-3.125Zm12.5-4.375V87h2.5v2.5h2.5v1.25h-2.5v5h-2.5v-5h-2.5V89.5h2.5v-1.25Z" class="Start"/>
    </g>
  </g>
</svg>
