<svg xmlns="http://www.w3.org/2000/svg" width="537" height="257" fill="none" viewBox="0 0 537 257">
  <g class="Group 1" filter="url(#a)">
    <g class="Vector">
      <mask id="b" width="485" height="238" x="0" y="0" fill="#000" class="b" maskUnits="userSpaceOnUse">
        <path fill="#fff" d="M0 0h485v238H0z"/>
        <path d="m124.113 30.32-16.512 20.352-19.329-12.416-4.864 6.144 34.561 25.344-16.768 31.616H60.113L31.44 78.576l12.415-20.864L68.56 71.664l3.711-5.76L36.048 44.4 70.353 6H101.2l22.912 24.32Z"/>
        <path d="M123.41 6.896h41.345l-1.92 64.64 16-11.52-4.736-46.208h39.296v62.208l-22.912 25.856h-48.256l-18.817-23.04V6.896Zm150.978-.128 22.529 15.488 1.791 37.888-22.784 22.016-28.287 1.792V102h-29.825l4.736-95.232h51.84Zm-21.503 29.184-.897 15.488 8.448 1.152 10.753-12.672-18.304-3.968Zm53.214-29.824h62.721l-5.248 26.496-30.848 4.736-.384 6.528 27.264 2.048-1.281 20.352-24.319 2.176 2.176 6.912 29.567.256 10.881 25.472h-70.529l-6.911-61.184 6.911-33.792Zm119.583.768 23.68 17.28L451.539 54l-13.312 14.848 23.679 20.864-27.776 12.032-29.056-24.832 4.353 24.704h-29.44l-7.425-90.624 53.12-4.096Zm-20.608 26.496-.768 18.176 7.809 1.024 7.807-11.264-14.848-7.936ZM10 219.76l45.696-84.608h27.008l8.96 25.6 15.872-25.728 23.936-.512 26.24 92.032-34.176 2.816-6.528-23.296-7.808-22.528-23.552 20.992L67.6 180.592l-21.632 45.952L10 219.76Zm205.472-85.12 40.448 88.192-38.656 6.144-3.072-22.656-31.104-.768-7.04 24.192-11.798-4.756-5-17-3.5-12 34.122-58.788 25.6-2.56ZM196.4 168.176l-5.248 13.056 19.584.512-4.48-13.184-9.856-.384Zm106.72-33.28 23.68 17.28L328.976 182l-13.312 14.848 23.68 20.864-27.776 12.032-29.056-24.832 4.352 24.704h-29.44L250 138.992l53.12-4.096Zm-20.608 26.496-.768 18.176 7.808 1.024 7.808-11.264-14.848-7.936Zm54.753-26.496 24.832-1.536 19.2 90.624-40.704 4.48-3.328-93.568Zm112.926.768 27.904 34.688-7.936 45.696-50.56 13.184-40.32-35.584 6.016-40.064 30.08-19.072 34.816 1.152Zm-27.264 32.256-6.528 14.592 11.264 7.552 11.904-4.352-.64-14.208-16-3.584Z"/>
      </mask>
      <path fill="#32B5FC" d="m124.113 30.32-16.512 20.352-19.329-12.416-4.864 6.144 34.561 25.344-16.768 31.616H60.113L31.44 78.576l12.415-20.864L68.56 71.664l3.711-5.76L36.048 44.4 70.353 6H101.2l22.912 24.32Z"/>
      <path fill="#F0BD06" d="M123.41 6.896h41.345l-1.92 64.64 16-11.52-4.736-46.208h39.296v62.208l-22.912 25.856h-48.256l-18.817-23.04V6.896Z"/>
      <path fill="#F20A0A" d="m274.388 6.768 22.529 15.488 1.791 37.888-22.784 22.016-28.287 1.792V102h-29.825l4.736-95.232h51.84Zm-21.503 29.184-.897 15.488 8.448 1.152 10.753-12.672-18.304-3.968Z"/>
      <path fill="#009F00" d="M306.099 6.128h62.721l-5.248 26.496-30.848 4.736-.384 6.528 27.264 2.048-1.281 20.352-24.319 2.176 2.176 6.912 29.567.256 10.881 25.472h-70.529l-6.911-61.184 6.911-33.792Z"/>
      <path fill="#F0BD06" d="m425.682 6.896 23.68 17.28L451.539 54l-13.312 14.848 23.679 20.864-27.776 12.032-29.056-24.832 4.353 24.704h-29.44l-7.425-90.624 53.12-4.096Zm-20.608 26.496-.768 18.176 7.809 1.024 7.807-11.264-14.848-7.936Z"/>
      <path fill="#F20A0A" d="m10 219.76 45.696-84.608h27.008l8.96 25.6 15.872-25.728 23.936-.512 26.24 92.032-34.176 2.816-6.528-23.296-7.808-22.528-23.552 20.992L67.6 180.592l-21.632 45.952L10 219.76Z"/>
      <path fill="#009F00" d="m215.472 134.64 40.448 88.192-38.656 6.144-3.072-22.656-31.104-.768-7.04 24.192-11.798-4.756-5-17-3.5-12 34.122-58.788 25.6-2.56ZM196.4 168.176l-5.248 13.056 19.584.512-4.48-13.184-9.856-.384Z"/>
      <path fill="#F0BD06" d="m303.12 134.896 23.68 17.28L328.976 182l-13.312 14.848 23.68 20.864-27.776 12.032-29.056-24.832 4.352 24.704h-29.44L250 138.992l53.12-4.096Zm-20.608 26.496-.768 18.176 7.808 1.024 7.808-11.264-14.848-7.936Z"/>
      <path fill="#32B5FC" d="m337.265 134.896 24.832-1.536 19.2 90.624-40.704 4.48-3.328-93.568Z"/>
      <path fill="#009F00" d="m450.191 135.664 27.904 34.688-7.936 45.696-50.56 13.184-40.32-35.584 6.016-40.064 30.08-19.072 34.816 1.152Zm-27.264 32.256-6.528 14.592 11.264 7.552 11.904-4.352-.64-14.208-16-3.584Z"/>
      <path fill="#2B2727" d="m124.113 30.32 4.659 3.78 3.306-4.075-3.598-3.82-4.367 4.115Zm-16.512 20.352-3.243 5.048 4.518 2.903 3.384-4.17-4.659-3.781ZM88.272 38.256l3.243-5.048-4.573-2.938-3.374 4.262 4.704 3.724ZM83.408 44.4l-4.704-3.724-3.864 4.88 5.02 3.682 3.55-4.838Zm34.561 25.344 5.3 2.811 2.43-4.582-4.182-3.067-3.548 4.838Zm-16.768 31.616v6h3.609l1.691-3.189-5.3-2.811Zm-41.088 0-3.733 4.697 1.639 1.303h2.093v-6ZM31.44 78.576l-5.157-3.068-2.68 4.504 4.104 3.261 3.733-4.697Zm12.415-20.864 2.951-5.224-5.107-2.885-3 5.04 5.156 3.069ZM68.56 71.664l-2.951 5.224 4.928 2.784 3.066-4.758-5.043-3.25Zm3.711-5.76 5.044 3.25 3.372-5.232-5.353-3.177-3.063 5.159ZM36.048 44.4l-4.474-3.997-4.856 5.436 6.268 3.72 3.063-5.159ZM70.353 6V0h-2.686l-1.79 2.003L70.354 6ZM101.2 6l4.367-4.114L103.791 0h-2.59v6Zm22.209.896v-6h-6v6h6Zm41.345 0 5.997.178.183-6.178h-6.18v6Zm-1.92 64.64-5.998-.178-.361 12.15 9.864-7.103-3.505-4.869Zm16-11.52 3.505 4.87 2.817-2.029-.354-3.453-5.968.612Zm-4.736-46.208v-6h-6.647l.678 6.612 5.969-.612Zm39.296 0h6v-6h-6v6Zm0 62.208 4.49 3.98 1.51-1.704v-2.276h-6Zm-22.912 25.856v6h2.699l1.791-2.021-4.49-3.979Zm-48.256 0-4.648 3.795 1.801 2.205h2.847v-6Zm-18.817-23.04h-6v2.139l1.353 1.656 4.647-3.795ZM274.388 6.768l3.4-4.944-1.536-1.056h-1.864v6Zm22.529 15.488 5.993-.284-.141-2.974-2.453-1.686-3.399 4.944Zm1.791 37.888 4.17 4.315 1.952-1.887-.128-2.712-5.994.284ZM275.924 82.16l.38 5.988 2.203-.14 1.587-1.533-4.17-4.315Zm-28.287 1.792-.38-5.988-5.62.356v5.632h6Zm0 18.048v6h6v-6h-6Zm-29.825 0-5.992-.298-.313 6.298h6.305v-6Zm4.736-95.232v-6h-5.709l-.283 5.702 5.992.298Zm30.337 29.184 1.271-5.864-6.856-1.486-.405 7.003 5.99.347Zm-.897 15.488-5.989-.346-.321 5.541 5.5.75.81-5.945Zm8.448 1.152-.81 5.945 3.258.444 2.128-2.507-4.576-3.882Zm10.753-12.672 4.575 3.882 6.471-7.627-9.775-2.119-1.271 5.864Zm34.91-33.792v-6h-4.896l-.982 4.798 5.878 1.202Zm62.721 0 5.885 1.166 1.419-7.166h-7.304v6Zm-5.248 26.496.91 5.93 4.158-.638.817-4.126-5.885-1.166Zm-30.848 4.736-.911-5.93-4.794.736-.285 4.842 5.99.352Zm-.384 6.528-5.99-.352-.347 5.893 5.887.442.45-5.983Zm27.264 2.048 5.988.377.372-5.916-5.911-.444-.449 5.983Zm-1.281 20.352.535 5.976 5.13-.459.324-5.14-5.989-.377Zm-24.319 2.176-.535-5.976-7.428.665 2.239 7.113 5.724-1.802Zm2.176 6.912-5.724 1.802 1.31 4.16 4.362.038.052-6Zm29.567.256 5.518-2.357-1.541-3.609-3.925-.034-.052 6Zm10.881 25.472v6h9.087l-3.57-8.357-5.517 2.357Zm-70.529 0-5.962.674.602 5.326h5.36v-6Zm-6.911-61.184-5.879-1.202-.19.93.106.945 5.963-.673ZM425.682 6.896l3.537-4.847L427.43.743l-2.209.17.461 5.983Zm23.68 17.28 5.985-.437-.203-2.771-2.245-1.639-3.537 4.847ZM451.539 54l4.467 4.005 1.702-1.898-.185-2.544-5.984.437Zm-13.312 14.848-4.468-4.005-4.04 4.506 4.541 4 3.967-4.501Zm23.679 20.864 2.385 5.506 8.675-3.758-7.093-6.25-3.967 4.502Zm-27.776 12.032-3.898 4.561 2.847 2.433 3.436-1.488-2.385-5.506Zm-29.056-24.832 3.899-4.561-12.708-10.86 2.9 16.462 5.909-1.041Zm4.353 24.704v6h7.149l-1.24-7.041-5.909 1.041Zm-29.44 0-5.98.49.451 5.51h5.529v-6Zm-7.425-90.624-.461-5.982-6.011.463.493 6.009 5.979-.49Zm32.512 22.4 2.829-5.292-8.42-4.5-.403 9.539 5.994.253Zm-.768 18.176-5.994-.253-.232 5.488 5.446.714.78-5.949Zm7.809 1.024-.781 5.95 3.628.475 2.084-3.007-4.931-3.418Zm7.807-11.264 4.932 3.418 3.836-5.535-5.939-3.175-2.829 5.292ZM10 219.76l-5.28-2.851-3.902 7.225 8.07 1.522L10 219.76Zm45.696-84.608v-6h-3.579l-1.7 3.149 5.279 2.851Zm27.008 0 5.663-1.982-1.406-4.018h-4.257v6Zm8.96 25.6-5.663 1.982 4.159 11.884 6.61-10.716-5.106-3.15Zm15.872-25.728-.128-5.999-3.264.07-1.714 2.779 5.106 3.15Zm23.936-.512 5.77-1.645-1.269-4.453-4.629.099.128 5.999Zm26.24 92.032.493 5.98 7.28-.6-2.003-7.025-5.77 1.645Zm-34.176 2.816-5.777 1.619 1.335 4.767 4.935-.406-.493-5.98Zm-6.528-23.296 5.777-1.619-.048-.175-.06-.171-5.669 1.965Zm-7.808-22.528 5.669-1.965-2.946-8.5-6.715 5.986 3.992 4.479Zm-23.552 20.992-4.79 3.612 3.92 5.201 4.862-4.334-3.992-4.479ZM67.6 180.592l4.79-3.612-5.984-7.938-4.235 8.994 5.429 2.556Zm-21.632 45.952-1.112 5.896 4.563.861 1.978-4.201-5.429-2.556Zm169.504-91.904 5.454-2.501-1.787-3.896-4.264.427.597 5.97Zm40.448 88.192.942 5.926 7.808-1.241-3.296-7.186-5.454 2.501Zm-38.656 6.144-5.946.806.825 6.083 6.063-.963-.942-5.926Zm-3.072-22.656 5.946-.806-.687-5.066-5.111-.126-.148 5.998Zm-31.104-.768.148-5.998-4.618-.114-1.291 4.436 5.761 1.676Zm-7.04 24.192-2.243 5.565 6.151 2.48 1.853-6.369-5.761-1.676Zm-11.798-4.756-5.756 1.693.819 2.786 2.694 1.086 2.243-5.565Zm25.622-87.788-.597-5.97-3.052.305-1.54 2.653 5.189 3.012Zm6.528 30.976.234-5.995-4.224-.165-1.577 3.922 5.567 2.238Zm-5.248 13.056-5.567-2.238-3.22 8.01 8.63.226.157-5.998Zm19.584.512-.157 5.998 8.609.225-2.771-8.153-5.681 1.93Zm-4.48-13.184 5.681-1.93-1.327-3.905-4.12-.16-.234 5.995Zm96.864-33.664 3.537-4.847-1.79-1.306-2.208.171.461 5.982Zm23.68 17.28 5.984-.437-.202-2.771-2.245-1.639-3.537 4.847ZM328.976 182l4.467 4.005 1.703-1.898-.186-2.544-5.984.437Zm-13.312 14.848-4.467-4.005-4.04 4.506 4.54 4.001 3.967-4.502Zm23.68 20.864 2.385 5.506 8.675-3.758-7.093-6.25-3.967 4.502Zm-27.776 12.032-3.898 4.561 2.847 2.433 3.436-1.488-2.385-5.506Zm-29.056-24.832 3.898-4.561-12.707-10.86 2.9 16.462 5.909-1.041Zm4.352 24.704v6h7.149l-1.24-7.041-5.909 1.041Zm-29.44 0-5.98.49.451 5.51h5.529v-6ZM250 138.992l-.461-5.982-6.011.463.492 6.009 5.98-.49Zm32.512 22.4 2.828-5.292-8.42-4.5-.403 9.539 5.995.253Zm-.768 18.176-5.995-.253-.232 5.488 5.447.714.78-5.949Zm7.808 1.024-.78 5.949 3.627.476 2.084-3.007-4.931-3.418Zm7.808-11.264 4.931 3.418 3.837-5.535-5.94-3.175-2.828 5.292Zm39.905-34.432-.37-5.989-5.834.361.208 5.841 5.996-.213Zm24.832-1.536 5.87-1.244-1.073-5.064-5.167.319.37 5.989Zm19.2 90.624.656 5.964 6.587-.725-1.373-6.483-5.87 1.244Zm-40.704 4.48-5.996.213.229 6.458 6.423-.707-.656-5.964Zm109.598-92.8 4.675-3.761-1.725-2.145-2.752-.091-.198 5.997Zm27.904 34.688 5.912 1.027.464-2.674-1.701-2.114-4.675 3.761Zm-7.936 45.696 1.514 5.806 3.737-.975.66-3.804-5.911-1.027Zm-50.56 13.184-3.97 4.499 2.394 2.113 3.09-.806-1.514-5.806Zm-40.32-35.584-5.933-.891-.485 3.229 2.448 2.161 3.97-4.499Zm6.016-40.064-3.213-5.067-2.314 1.467-.406 2.709 5.933.891Zm30.08-19.072.198-5.997-1.849-.061-1.562.991 3.213 5.067Zm7.552 33.408 1.311-5.855-4.785-1.072-2.003 4.477 5.477 2.45Zm-6.528 14.592-5.477-2.45-2.065 4.617 4.201 2.817 3.341-4.984Zm11.264 7.552-3.341 4.984 2.535 1.699 2.866-1.048-2.06-5.635Zm11.904-4.352 2.06 5.635 4.132-1.51-.198-4.395-5.994.27Zm-.64-14.208 5.994-.27-.206-4.582-4.477-1.003-1.311 5.855ZM159.25 207.988l-5.76 1.68.004.013 5.756-1.693Zm-3.5-12-5.189-3.012-1.291 2.224.72 2.468 5.76-1.68ZM119.453 26.54l-16.512 20.352 9.319 7.56L128.772 34.1l-9.319-7.56Zm-8.61 19.084L91.515 33.208 85.03 43.304l19.328 12.416 6.485-10.096ZM83.568 34.532l-4.864 6.144 9.409 7.448 4.864-6.144-9.409-7.448ZM79.86 49.238l34.56 25.344 7.097-9.676-34.56-25.344-7.097 9.676Zm32.808 17.695L95.9 98.549l10.601 5.622 16.768-31.616-10.601-5.622ZM101.201 95.36H60.113v12H101.2v-12Zm-37.356 1.302L35.173 73.879l-7.465 9.395 28.672 22.784 7.465-9.395ZM36.597 81.644 49.013 60.78 38.7 54.644 26.284 75.508l10.313 6.136Zm4.309-18.708L65.61 76.888l5.9-10.448-24.703-13.952-5.901 10.448Zm32.698 11.978 3.712-5.76-10.087-6.5-3.712 5.76 10.087 6.5Zm1.731-14.17L39.111 39.242 32.986 49.56 69.21 71.063l6.125-10.318ZM40.523 48.398l34.304-38.4-8.95-7.994-34.303 38.4 8.95 7.994ZM70.353 12H101.2V0H70.353v12Zm26.48-1.886 22.912 24.32 8.735-8.228-22.912-24.32-8.735 8.228Zm26.577 2.782h41.345v-12H123.41v12Zm35.347-6.178-1.92 64.64 11.995.356 1.92-64.64-11.995-.356Zm7.583 69.687 16-11.52-7.011-9.738-16 11.52 7.011 9.738Zm18.463-17-4.736-46.209-11.937 1.224 4.736 46.208 11.937-1.224Zm-10.704-39.597h39.296v-12h-39.296v12Zm33.296-6v62.208h12V13.808h-12Zm1.509 58.229-22.912 25.856 8.981 7.958 22.912-25.856-8.981-7.958Zm-18.421 23.835h-48.256v12h48.256v-12Zm-43.609 2.205-18.816-23.04-9.295 7.59 18.816 23.04 9.295-7.59ZM129.41 78.832V6.896h-12v71.936h12Zm141.579-67.12L293.517 27.2l6.799-9.888-22.528-15.488-6.799 9.888Zm19.934 10.828 1.792 37.888 11.987-.567-1.792-37.889-11.987.567Zm3.616 33.29-22.784 22.015 8.339 8.63 22.784-22.016-8.339-8.63Zm-18.994 20.342-28.288 1.792.759 11.976 28.288-1.792-.759-11.976Zm-33.908 7.78V102h12V83.952h-12Zm6 12.048h-29.825v12h29.825V96Zm-23.832 6.298 4.736-95.232-11.985-.596-4.736 95.232 11.985.596Zm-1.257-89.53h51.84v-12h-51.84v12Zm24.347 22.837-.896 15.489 11.979.692.896-15.488-11.979-.693Zm4.283 21.78 8.448 1.152 1.621-11.89-8.448-1.152-1.621 11.89Zm13.834-.911 10.752-12.672-9.151-7.764-10.752 12.672 9.151 7.764Zm7.448-22.418-18.304-3.968-2.543 11.728 18.304 3.968 2.543-11.728Zm33.639-21.928h62.721v-12h-62.721v12Zm56.835-7.166-5.248 26.496 11.771 2.332 5.248-26.496-11.771-2.332Zm-.273 21.732-30.848 4.736 1.821 11.86 30.848-4.736-1.821-11.86Zm-35.927 10.314-.384 6.528 11.979.704.384-6.528-11.979-.704Zm5.156 12.863 27.264 2.048.899-11.966-27.264-2.048-.899 11.966Zm21.725-4.312-1.28 20.352 11.977.754 1.28-20.352-11.977-.754Zm4.174 14.753-24.32 2.176 1.069 11.952 24.32-2.176-1.069-11.952Zm-29.509 9.954 2.176 6.912 11.447-3.604-2.176-6.912-11.447 3.604Zm7.848 11.11 29.568.256.103-12-29.568-.256-.103 12Zm24.102-3.387 10.88 25.472 11.035-4.714-10.88-25.472-11.035 4.714Zm16.398 17.115h-70.529v12h70.529v-12Zm-64.566 5.326-6.912-61.184-11.925 1.347 6.912 61.185 11.925-1.348Zm-6.996-59.308 6.912-33.792-11.757-2.404-6.912 33.792 11.757 2.404Zm117.08-29.38 23.68 17.28 7.073-9.693-23.68-17.28-7.073 9.694Zm21.232 12.87 2.176 29.825 11.969-.874-2.176-29.824-11.969.874Zm3.693 25.383-13.312 14.848 8.935 8.01 13.312-14.848-8.935-8.01ZM434.26 73.35l23.68 20.864 7.933-9.004-23.68-20.864-7.933 9.004Zm25.262 10.856-27.776 12.032 4.769 11.012 27.776-12.032-4.769-11.012Zm-21.493 12.977L408.973 72.35l-7.797 9.122 29.056 24.832 7.797-9.122Zm-38.864-19.23 4.353 24.704 11.818-2.082-4.353-24.704-11.818 2.082Zm10.262 17.663h-29.44v12h29.44v-12Zm-23.461 5.51-7.424-90.624-11.959.98 7.424 90.624 11.959-.98Zm-12.942-84.152 53.12-4.096-.923-11.964-53.12 4.096.923 11.964ZM399.08 33.14l-.768 18.176 11.989.506.768-18.176-11.989-.506Zm4.446 24.378 7.808 1.024 1.561-11.898-7.808-1.024-1.561 11.898Zm13.52-1.507 7.808-11.264-9.863-6.836-7.808 11.264 9.863 6.836Zm5.705-19.974L407.903 28.1l-5.657 10.584 14.848 7.936 5.657-10.584ZM15.279 222.611l45.696-84.608-10.558-5.702L4.72 216.909l10.558 5.702Zm40.417-81.459h27.008v-12H55.696v12Zm21.345-4.018 8.96 25.6 11.326-3.964-8.96-25.6-11.326 3.964Zm19.73 26.768 15.871-25.728-10.212-6.3-15.873 25.728 10.213 6.3Zm10.893-22.879 23.936-.512-.256-11.998-23.936.512.256 11.998Zm18.038-4.866 26.24 92.032 11.54-3.29-26.24-92.032-11.54 3.29Zm31.517 84.407-34.176 2.816.986 11.96 34.176-2.816-.986-11.96Zm-27.906 7.177-6.528-23.296-11.554 3.238 6.528 23.296 11.554-3.238Zm-6.636-23.642-7.808-22.528-11.338 3.93 7.808 22.528 11.338-3.93Zm-17.469-25.042-23.552 20.992 7.984 8.958 23.552-20.992-7.984-8.958Zm-14.77 21.859L72.392 176.98l-9.582 7.224 18.048 23.936 9.582-7.224Zm-28.267-22.88L40.54 223.988l10.858 5.112 21.632-45.952-10.858-5.112Zm-15.09 42.612-35.969-6.784-2.224 11.792 35.968 6.784 2.224-11.792Zm162.937-83.507 40.448 88.192 10.908-5.002-40.448-88.192-10.908 5.002Zm44.96 79.765-38.656 6.144 1.884 11.852 38.656-6.144-1.884-11.852ZM223.21 228.17l-3.072-22.656-11.892 1.612 3.072 22.656 11.892-1.612Zm-8.87-27.848-31.104-.768-.296 11.996 31.104.768.296-11.996Zm-37.013 3.554-7.04 24.192 11.522 3.352 7.04-24.192-11.522-3.352Zm.964 20.303-11.798-4.756-4.486 11.13 11.798 4.756 4.486-11.13Zm12.178-81.009 25.6-2.56-1.194-11.94-25.6 2.56 1.194 11.94Zm.364 22.768-5.248 13.056 11.134 4.476 5.248-13.056-11.134-4.476Zm.162 21.292 19.584.512.314-11.996-19.584-.512-.314 11.996Zm25.422-7.416-4.48-13.184-11.362 3.86 4.48 13.184 11.362-3.86Zm-9.927-17.249-9.856-.384-.468 11.99 9.856.384.468-11.99Zm93.093-22.822 23.68 17.28 7.074-9.694-23.68-17.28-7.074 9.694Zm21.233 12.87 2.176 29.824 11.968-.874-2.176-29.824-11.968.874Zm3.693 25.382-13.312 14.848 8.934 8.01 13.312-14.848-8.934-8.01Zm-12.812 23.355 23.68 20.864 7.934-9.004-23.68-20.864-7.934 9.004Zm25.262 10.856-27.776 12.032 4.77 11.012 27.776-12.032-4.77-11.012Zm-21.493 12.977-29.056-24.832-7.796 9.122 29.056 24.832 7.796-9.122Zm-38.863-19.23 4.352 24.704 11.818-2.082-4.352-24.704-11.818 2.082Zm10.261 17.663h-29.44v12h29.44v-12Zm-23.46 5.51-7.424-90.624-11.96.98 7.424 90.624 11.96-.98Zm-12.943-84.152 53.12-4.096-.922-11.964-53.12 4.096.922 11.964Zm26.056 16.165-.768 18.176 11.99.506.768-18.176-11.99-.506Zm4.447 24.378 7.808 1.024 1.56-11.898-7.808-1.024-1.56 11.898Zm13.519-1.507 7.808-11.264-9.862-6.836-7.808 11.264 9.862 6.836Zm5.705-19.974L285.34 156.1l-5.656 10.584 14.848 7.936 5.656-10.584Zm37.447-23.151 24.832-1.536-.74-11.978-24.832 1.536.74 11.978Zm18.592-6.281 19.2 90.624 11.74-2.488-19.2-90.624-11.74 2.488Zm24.414 83.416-40.704 4.48 1.312 11.928 40.704-4.48-1.312-11.928Zm-34.052 10.231-3.328-93.568-11.992.426 3.328 93.568 11.992-.426Zm98.927-88.826 27.904 34.688 9.35-7.522-27.904-34.688-9.35 7.522Zm26.668 29.9-7.937 45.696 11.823 2.054 7.937-45.696-11.823-2.054Zm-3.539 40.917-50.56 13.184 3.028 11.612 50.56-13.184-3.028-11.612Zm-45.076 14.491-40.32-35.584-7.94 8.998 40.32 35.584 7.94-8.998Zm-38.357-30.194 6.016-40.064-11.866-1.782-6.016 40.064 11.866 1.782Zm3.296-35.888 30.08-19.072-6.426-10.134-30.08 19.072 6.426 10.134Zm26.669-18.142 34.816 1.152.396-11.994-34.816-1.152-.396 11.994Zm2.273 24.961-6.528 14.592 10.954 4.9 6.528-14.592-10.954-4.9Zm-4.392 22.026 11.264 7.552 6.682-9.968-11.264-7.552-6.682 9.968Zm16.665 8.203 11.904-4.352-4.12-11.27-11.904 4.352 4.12 11.27Zm15.838-10.257-.64-14.208-11.988.54.64 14.208 11.988-.54Zm-5.323-19.793-16-3.584-2.622 11.71 16 3.584 2.622-11.71Zm-270.232 57.646-5-17-11.512 3.386 5 17 11.512-3.386Zm-4.996-16.987-3.5-12-11.52 3.36 3.5 12 11.52-3.36ZM160.939 199l34.122-58.788-10.378-6.024-34.122 58.788L160.939 199Z" mask="url(#b)"/>
    </g>
    <g class="Vector">
      <mask id="c" width="39" height="20" x="484.172" y="117.616" fill="#000" class="c" maskUnits="userSpaceOnUse">
        <path fill="#fff" d="M484.172 117.616h39v20h-39z"/>
        <path d="m487.172 121.616 11.824.208v4.8l-4-.656 1.104 7.536h-5.728l.864-7.536-4.064-.208v-4.144Zm12.656 10.656 5.712-10.576h3.376l1.12 3.2 1.984-3.216 2.992-.064 3.28 11.504-4.272.352-.816-2.912-.976-2.816-2.944 2.624-2.256-2.992-2.704 5.744-4.496-.848Z"/>
      </mask>
      <path fill="#93FCEE" d="m487.172 121.616 11.824.208v4.8l-4-.656 1.104 7.536h-5.728l.864-7.536-4.064-.208v-4.144Zm12.656 10.656 5.712-10.576h3.376l1.12 3.2 1.984-3.216 2.992-.064 3.28 11.504-4.272.352-.816-2.912-.976-2.816-2.944 2.624-2.256-2.992-2.704 5.744-4.496-.848Z"/>
      <path fill="#2B2727" d="m487.172 121.616.053-3-3.053-.053v3.053h3Zm11.824.208h3v-2.948l-2.947-.052-.053 3Zm0 4.8-.486 2.96 3.486.572v-3.532h-3Zm-4-.656.485-2.96-4.048-.664.595 4.059 2.968-.435Zm1.104 7.536v3h3.471l-.503-3.435-2.968.435Zm-5.728 0-2.981-.342-.383 3.342h3.364v-3Zm.864-7.536 2.98.342.364-3.175-3.191-.163-.153 2.996Zm-4.064-.208h-3v2.85l2.847.146.153-2.996Zm12.656 6.512-2.639-1.426-1.952 3.613 4.035.761.556-2.948Zm5.712-10.576v-3h-1.789l-.85 1.574 2.639 1.426Zm3.376 0 2.832-.991-.703-2.009h-2.129v3Zm1.12 3.2-2.831.991 2.079 5.942 3.305-5.358-2.553-1.575Zm1.984-3.216-.064-2.999-1.632.035-.857 1.389 2.553 1.575Zm2.992-.064 2.885-.823-.635-2.226-2.314.05.064 2.999Zm3.28 11.504.246 2.99 3.641-.3-1.002-3.513-2.885.823Zm-4.272.352-2.889.809.668 2.384 2.467-.203-.246-2.99Zm-.816-2.912 2.889-.809-.025-.088-.029-.085-2.835.982Zm-.976-2.816 2.835-.982-1.473-4.25-3.358 2.992 1.996 2.24Zm-2.944 2.624-2.395 1.806 1.96 2.6 2.431-2.166-1.996-2.24Zm-2.256-2.992 2.396-1.806-2.993-3.969-2.117 4.497 2.714 1.278Zm-2.704 5.744-.556 2.948 2.282.43.988-2.1-2.714-1.278Zm-17.205-8.504 11.824.208.106-6-11.824-.208-.106 6Zm8.877-2.792v4.8h6v-4.8h-6Zm3.485 1.84-4-.656-.971 5.92 4 .656.971-5.92Zm-7.453 2.739 1.104 7.536 5.936-.87-1.104-7.536-5.936.87Zm4.072 4.101h-5.728v6h5.728v-6Zm-2.748 3.342.864-7.536-5.961-.684-.864 7.536 5.961.684Zm-1.963-10.874-4.064-.208-.306 5.992 4.064.208.306-5.992Zm-1.217 2.788v-4.144h-6v4.144h6Zm12.296 7.938 5.712-10.576-5.279-2.852-5.712 10.576 5.279 2.852Zm3.072-9.002h3.376v-6h-3.376v6Zm.545-2.009 1.12 3.2 5.663-1.982-1.12-3.2-5.663 1.982Zm6.504 3.784 1.984-3.216-5.106-3.15-1.984 3.216 5.106 3.15Zm-.505-1.792 2.992-.064-.128-5.998-2.992.064.128 5.998Zm.043-2.24 3.28 11.504 5.77-1.646-3.28-11.504-5.77 1.646Zm5.919 7.691-4.272.352.492 5.98 4.272-.352-.492-5.98Zm-1.137 2.533-.816-2.912-5.778 1.618.816 2.912 5.778-1.618Zm-.87-3.085-.976-2.816-5.669 1.964.976 2.816 5.669-1.964Zm-5.807-4.074-2.944 2.624 3.992 4.48 2.944-2.624-3.992-4.48Zm1.448 3.058-2.256-2.992-4.791 3.612 2.256 2.992 4.791-3.612Zm-7.366-2.464-2.704 5.744 5.428 2.556 2.704-5.744-5.428-2.556Zm.566 4.074-4.496-.848-1.112 5.896 4.496.848 1.112-5.896Z" mask="url(#c)"/>
    </g>
  </g>
  <defs>
    <filter id="a" width="535.36" height="256.789" x=".818" y="0" class="a" color-interpolation-filters="sRGB" filterUnits="userSpaceOnUse">
      <feFlood flood-opacity="0" result="BackgroundImageFix"/>
      <feColorMatrix in="SourceAlpha" result="hardAlpha" values="0 0 0 0 0 0 0 0 0 0 0 0 0 0 0 0 0 0 127 0"/>
      <feOffset dx="10" dy="15"/>
      <feGaussianBlur stdDeviation="2"/>
      <feComposite in2="hardAlpha" operator="out"/>
      <feColorMatrix values="0 0 0 0 0 0 0 0 0 0 0 0 0 0 0 0 0 0 0.25 0"/>
      <feBlend in2="BackgroundImageFix" result="effect1_dropShadow_25_35"/>
      <feBlend in="SourceGraphic" in2="effect1_dropShadow_25_35" result="shape"/>
    </filter>
  </defs>
</svg>
