<svg xmlns="http://www.w3.org/2000/svg" width="166" height="52" fill="none" viewBox="0 0 166 52">
  <path fill="#000" fill-rule="evenodd" d="M159.083 0H3.458v3.467H0V10.4h3.458v3.467h6.917v3.466h6.917V20.8h10.375v3.467h3.458v3.466h3.458v6.934h3.459v3.466H41.5V41.6h10.375v3.467h3.458v3.466h3.459V52h17.291v-3.467h10.375V52h17.292v-3.467h10.375V52h17.292v-3.467h6.916v-3.466h10.375V41.6h3.459v-3.467h3.458v-3.466h3.458V31.2h3.459v-6.933H166V10.4h-3.458V3.467h-3.459V0Z" clip-rule="evenodd"/>
  <path fill="#fff" fill-rule="evenodd" d="M3.458 3.467h152.167v3.466h3.458V10.4h3.459v10.4h-6.917v6.933h-3.458V31.2h-6.917v-3.467h-6.917v6.934h-3.458v3.466h-3.458V41.6h-13.834v-3.467h-6.916v-3.466h-3.459v3.466h-3.458V41.6H89.917v-3.467H83v-3.466h-3.458v3.466h-3.459V41.6H62.25v-3.467h-6.917v-3.466h-3.458v-6.934h-3.458v-3.466H38.042V20.8h-3.459v-3.467h-6.916v-3.466H17.292V10.4h-6.917V6.933H3.458V3.467Z" clip-rule="evenodd"/>
  <path fill="#75CAFF" fill-rule="evenodd" d="M10.375 6.933H3.458V10.4h6.917v3.467h6.917v3.466h10.375V20.8h3.458v3.467h3.458v3.466h3.459v6.934H41.5v3.466h3.458v-10.4h3.459v6.934h3.458v3.466h3.458v6.934h3.459v3.466h17.291v-3.466h3.459V41.6H83v3.467h3.458v3.466h17.292v-3.466h3.458V41.6h3.459v3.467h3.458v3.466h17.292v-3.466h3.458V41.6h3.458v-6.933h-3.458v3.466h-3.458V41.6h-13.834v-3.467h-6.916v-3.466h-3.459v3.466h-3.458V41.6H89.917v-3.467H83v-3.466h-3.458v3.466h-3.459V41.6H62.25v-3.467h-6.917v-3.466h-3.458v-6.934h-3.458v-3.466h-3.459v3.466H41.5v-3.466h-3.458V20.8h-3.459v-3.467h-6.916v-3.466H17.292V10.4h-6.917V6.933Zm131.417 20.8h-3.459V31.2h3.459v10.4h3.458v-3.467h6.917v-3.466h3.458v-6.934h3.458V20.8h-3.458v6.933h-3.458V31.2h-10.375v-3.467Z" clip-rule="evenodd"/>
</svg>
